<svg width="1280" height="720" viewBox="0 0 1280 720" fill="none" xmlns="http://www.w3.org/2000/svg">
<g clip-path="url(#clip0)">
<rect width="1280" height="720" fill="white"/>
<path fill-rule="evenodd" clip-rule="evenodd" d="M1484.94 -113.426C1492 -38.5104 1459.73 41.1091 1403.6 91.2195C1348.21 140.662 1267.73 144.393 1193.52 146.716C1126.25 148.822 1062.54 131.693 1001.28 103.815C936.014 74.1139 856.256 48.5903 830.691 -18.4024C805.316 -84.8957 853.306 -154.385 877.159 -221.439C896.739 -276.481 919.333 -327.89 956.745 -372.76C998.536 -422.882 1041.58 -476.124 1104.36 -493.936C1171.92 -513.104 1254.21 -516.844 1308.78 -472.639C1362.37 -429.225 1338.25 -341.791 1368.61 -279.868C1399.16 -217.57 1478.43 -182.505 1484.94 -113.426Z" fill="#FAC13B"/>
<path fill-rule="evenodd" clip-rule="evenodd" d="M1545.94 -123.426C1553 -48.5104 1520.73 31.1091 1464.6 81.2195C1409.21 130.662 1328.73 134.393 1254.52 136.716C1187.25 138.822 1123.54 121.693 1062.28 93.8147C997.014 64.1139 917.256 38.5903 891.691 -28.4025C866.316 -94.8957 914.306 -164.385 938.159 -231.439C957.739 -286.481 980.333 -337.89 1017.74 -382.76C1059.54 -432.882 1102.58 -486.124 1165.36 -503.936C1232.92 -523.104 1315.21 -526.844 1369.78 -482.639C1423.37 -439.225 1399.25 -351.791 1429.61 -289.868C1460.16 -227.57 1539.43 -192.505 1545.94 -123.426Z" fill="#F55C4A"/>
<path fill-rule="evenodd" clip-rule="evenodd" d="M565.996 330.746C614.722 376.498 693.182 402.393 709.371 467.363C724.7 528.881 676.195 586.821 642.616 638.243C612.233 684.773 562.473 711.139 524.179 750.966C482.859 793.941 460.112 856.828 406.969 883.33C351.902 910.79 282.825 924.226 224.3 900.51C165.302 876.603 140.137 805.464 96.6588 757.586C60.9136 718.223 18.1271 687.115 -10.3813 642.079C-40.0787 595.164 -53.7198 542.049 -72.7657 489.938C-97.8466 421.315 -153.62 355.379 -141.021 284.64C-128.771 215.858 -72.1476 156.107 -8.85371 131.083C55.013 105.833 126.888 147.939 196.237 151.301C245.843 153.705 295.051 133.09 342.95 148.135C389.576 162.781 423.101 203.183 461.503 234.624C498.522 264.932 531.047 297.93 565.996 330.746Z" fill="#FAC13B"/>
<path fill-rule="evenodd" clip-rule="evenodd" d="M506.154 373.88C554.88 419.631 633.34 445.527 649.529 510.497C664.857 572.014 616.353 629.955 582.774 681.377C552.39 727.907 502.63 754.273 464.337 794.1C423.017 837.075 400.27 899.962 347.127 926.463C292.06 953.924 222.982 967.359 164.458 943.644C105.459 919.737 80.295 848.598 36.8165 800.719C1.07127 761.357 -41.7151 730.248 -70.2236 685.212C-99.921 638.298 -113.562 585.183 -132.608 533.072C-157.689 464.449 -213.462 398.513 -200.863 327.773C-188.613 258.991 -131.99 199.241 -68.696 174.217C-4.82933 148.966 67.0458 191.073 136.394 194.434C186.001 196.839 235.209 176.224 283.108 191.269C329.733 205.915 363.259 246.317 401.661 277.758C438.68 308.066 471.205 341.064 506.154 373.88Z" fill="#F55C4A"/>
</g>
<defs>
<clipPath id="clip0">
<rect width="1280" height="720" fill="white"/>
</clipPath>
</defs>
</svg>
