<svg width="1280" height="720" viewBox="0 0 1280 720" fill="none" xmlns="http://www.w3.org/2000/svg">
<g clip-path="url(#clip0)">
<rect width="1280" height="720" fill="white"/>
<path fill-rule="evenodd" clip-rule="evenodd" d="M1693.09 392.304C1691.11 501.969 1567.95 567.178 1493.64 650.693C1441.09 709.753 1394.09 771.544 1323.11 808.109C1252.61 844.424 1174.56 849.427 1095.32 855.882C992.207 864.282 881.964 901.144 792.872 851.303C696.753 797.53 637.472 693.339 615.662 587.544C593.557 480.317 599.888 355.267 673.255 271.065C743.368 190.596 879.93 226.644 974.762 175.406C1071.61 123.078 1113.91 -17.3961 1223.94 -26.4762C1334.69 -35.6151 1421.8 59.3148 1503.02 131.814C1585.73 205.64 1695.07 282.676 1693.09 392.304Z" fill="#F55C4A"/>
</g>
<defs>
<clipPath id="clip0">
<rect width="1280" height="720" fill="white"/>
</clipPath>
</defs>
</svg>
