<svg width="100" height="100" viewBox="0 0 100 100" fill="none" xmlns="http://www.w3.org/2000/svg">
<rect width="100" height="100" rx="25" fill="white"/>
<path d="M25 68.5529C25 72.1139 27.8865 75 31.4471 75H68.5527C72.1139 75 75 72.1135 75 68.5529V31.4473C75 27.8861 72.1135 25 68.5529 25H31.4473C27.8861 25 25 27.8865 25 31.4471V68.5527V68.5529Z" fill="#563D7C"/>
<path d="M45.734 47.1168V40.0361H51.9666C52.5604 40.0361 53.1326 40.0855 53.6838 40.1846C54.235 40.2834 54.7227 40.46 55.1467 40.7145C55.5705 40.9689 55.9098 41.3223 56.1643 41.7744C56.4186 42.2268 56.5459 42.8063 56.5459 43.5127C56.5459 44.7848 56.1643 45.7035 55.401 46.2688C54.6379 46.8342 53.6627 47.1168 52.4754 47.1168H45.734ZM39.0771 34.8633V65.1367H53.7475C55.1043 65.1367 56.4258 64.9672 57.7119 64.6279C58.998 64.2887 60.1428 63.7658 61.1463 63.0592C62.1496 62.3525 62.9482 61.4408 63.5418 60.3244C64.1355 59.2078 64.4322 57.8863 64.4322 56.36C64.4322 54.466 63.9729 52.8479 63.0543 51.5053C62.1355 50.1625 60.7434 49.2227 58.8777 48.6855C60.2346 48.0355 61.2594 47.2016 61.952 46.184C62.6443 45.1664 62.9906 43.8945 62.9906 42.368C62.9906 40.9547 62.7574 39.7676 62.291 38.8064C61.8246 37.8455 61.1674 37.0752 60.3193 36.4957C59.4715 35.9162 58.4539 35.4992 57.2666 35.2449C56.0795 34.9904 54.765 34.8633 53.3234 34.8633H39.0771ZM45.734 59.9639V51.6535H52.9842C54.4258 51.6535 55.5848 51.9855 56.4611 52.65C57.3373 53.3143 57.7756 54.4236 57.7756 55.9783C57.7756 56.7699 57.6412 57.4199 57.3727 57.9287C57.1041 58.4375 56.7438 58.8404 56.2914 59.1371C55.8393 59.434 55.3162 59.6459 54.7227 59.7732C54.1289 59.9002 53.5072 59.9639 52.857 59.9639H45.734Z" fill="white"/>
</svg>
