<svg width="100" height="100" viewBox="0 0 100 100" fill="none" xmlns="http://www.w3.org/2000/svg">
<rect width="100" height="100" rx="25" fill="white"/>
<g clip-path="url(#clip0)">
<path d="M76.9074 40.2016C76.907 39.1639 76.685 38.2469 76.2362 37.4599C75.7954 36.6861 75.1352 36.0375 74.2496 35.5246C66.9395 31.3096 59.6224 27.1075 52.3147 22.8882C50.3445 21.7508 48.4344 21.7922 46.4789 22.946C43.5692 24.6619 29.0018 33.0079 24.6608 35.5223C22.8731 36.5572 22.0032 38.141 22.0028 40.1996C22 48.6763 22.0028 57.1527 22 65.6296C22.0004 66.6445 22.2129 67.5437 22.642 68.3188C23.083 69.1161 23.7525 69.7825 24.6585 70.307C28.9996 72.8213 43.569 81.1667 46.478 82.8831C48.4344 84.0374 50.3445 84.0787 52.3153 82.9409C59.6232 78.7213 66.9408 74.5194 74.2519 70.3044C75.1579 69.7802 75.8274 69.1133 76.2685 68.3167C76.6969 67.5415 76.9098 66.6424 76.9102 65.6272C76.9102 65.6272 76.9102 48.6784 76.9074 40.2016Z" fill="#5C8DBC"/>
<path d="M49.5391 52.832L22.642 68.3188C23.083 69.1161 23.7525 69.7826 24.6585 70.307C28.9996 72.8213 43.569 81.1667 46.478 82.8831C48.4344 84.0374 50.3446 84.0787 52.3153 82.9409C59.6232 78.7214 66.9408 74.5194 74.2519 70.3044C75.1579 69.7802 75.8274 69.1133 76.2685 68.3167L49.5391 52.832Z" fill="#1A4674"/>
<path d="M41.5725 57.4194C43.1376 60.1518 46.0799 61.9947 49.4551 61.9947C52.8512 61.9947 55.8102 60.1283 57.3674 57.3667L49.5391 52.832L41.5725 57.4194Z" fill="#1A4674"/>
<path d="M76.9074 40.2016C76.9069 39.1639 76.685 38.2469 76.2362 37.46L49.5391 52.832L76.2684 68.3167C76.6968 67.5415 76.9097 66.6424 76.9102 65.6273C76.9102 65.6273 76.9102 48.6785 76.9074 40.2016Z" fill="#1B598E"/>
<path d="M75.4376 53.9389H73.3489V56.0281H71.2598V53.9389H69.1713V51.8504H71.2598V49.7617H73.3489V51.8504H75.4376V53.9389Z" fill="white"/>
<path d="M67.8161 53.9389H65.7276V56.0281H63.6389V53.9389H61.5502V51.8504H63.6389V49.7617H65.7276V51.8504H67.8161V53.9389Z" fill="white"/>
<path d="M57.3673 57.3667C55.8102 60.1283 52.8511 61.9946 49.4551 61.9946C46.0799 61.9946 43.1376 60.1517 41.5725 57.4193C40.7862 56.0482 40.3733 54.495 40.3749 52.9145C40.3749 47.8998 44.4404 43.8345 49.4551 43.8345C52.8086 43.8345 55.7354 45.6545 57.3083 48.3589L65.2448 43.7888C62.0903 38.3433 56.2007 34.6798 49.4551 34.6798C39.3841 34.6798 31.2202 42.8439 31.2202 52.9145C31.2202 56.2183 32.0991 59.3166 33.6353 61.989C36.7819 67.4632 42.6881 71.1493 49.4551 71.1493C56.2345 71.1493 62.15 67.4484 65.2921 61.9581L57.3673 57.3667Z" fill="white"/>
</g>
<defs>
<clipPath id="clip0">
<rect width="55" height="61.875" fill="white" transform="translate(22 22)"/>
</clipPath>
</defs>
</svg>
