<svg width="603" height="561" viewBox="0 0 603 561" fill="none" xmlns="http://www.w3.org/2000/svg">
<path d="M512 272C512 413.385 397.385 528 256 528C114.615 528 0 413.385 0 272C0 130.615 129.615 2 271 2C412.385 2 299.5 229.5 512 272Z" fill="#F55C4A"/>
<path fill-rule="evenodd" clip-rule="evenodd" d="M292.801 0.000616417C348.857 0.243043 364.715 79.5782 411.604 109.241C462.634 141.524 540.965 129.731 575.072 178.572C610.861 229.821 609.66 301.671 586.127 359.155C563.195 415.17 503.1 444.151 452.13 478.876C401.976 513.045 354.179 559.692 292.801 558.992C231.637 558.294 184.706 511.237 136.184 475.273C89.0786 440.357 28.3519 410.042 16.1388 353.928C4.11138 298.667 45.366 247.188 76.0843 199.138C100.367 161.155 139.735 138.982 173.223 108.21C213.789 70.9353 236.803 -0.24156 292.801 0.000616417Z" fill="#FAC13B"/>
<path fill-rule="evenodd" clip-rule="evenodd" d="M272.084 1.5127C324.175 1.75499 338.911 81.0453 382.484 110.692C429.905 142.956 502.696 131.17 534.391 179.983C567.649 231.204 566.533 303.013 544.664 360.464C523.354 416.448 467.51 445.412 420.144 480.118C373.537 514.267 329.12 560.888 272.084 560.188C215.245 559.491 171.633 512.46 126.543 476.516C82.7688 441.62 26.3369 411.322 14.9875 355.24C3.81074 300.01 42.1477 248.561 70.6935 200.537C93.2585 162.576 129.843 140.415 160.962 109.661C198.659 72.4073 220.046 1.27066 272.084 1.5127Z" fill="#F55C4A"/>
<path d="M450.839 509.543C450.839 512.219 366.167 514.381 261.839 514.381C157.511 514.381 72.839 512.219 72.839 509.543C72.839 506.867 157.511 504.72 261.839 504.72C366.167 504.72 450.839 506.882 450.839 509.543Z" fill="#2E353A"/>
<path d="M301.302 61.1292H123.718C118.19 61.1292 113.708 65.6105 113.708 71.1386V140.555C113.708 146.083 118.19 150.564 123.718 150.564H301.302C306.83 150.564 311.312 146.083 311.312 140.555V71.1386C311.312 65.6105 306.83 61.1292 301.302 61.1292Z" fill="#FAC13B"/>
<path d="M113.708 134.839V167.12L131.716 146.391" fill="#FAC13B"/>
<path d="M301.317 61.1292H123.673C122.359 61.1291 121.058 61.3882 119.844 61.8914C118.631 62.3946 117.528 63.1321 116.6 64.0618C115.672 64.9914 114.936 66.095 114.435 67.3093C113.933 68.5236 113.676 69.8249 113.678 71.1386V167.12L128.072 150.564H301.317C302.631 150.564 303.932 150.305 305.146 149.802C306.359 149.299 307.462 148.561 308.39 147.631C309.318 146.702 310.054 145.598 310.555 144.384C311.057 143.17 311.314 141.868 311.312 140.555V71.1386C311.314 69.8249 311.057 68.5236 310.555 67.3093C310.054 66.095 309.318 64.9914 308.39 64.0618C307.462 63.1321 306.359 62.3946 305.146 61.8914C303.932 61.3882 302.631 61.1291 301.317 61.1292Z" fill="#FAC13B"/>
<path opacity="0.1" d="M301.317 61.1292H123.673C122.359 61.1291 121.058 61.3882 119.844 61.8914C118.631 62.3946 117.528 63.1321 116.6 64.0618C115.672 64.9914 114.936 66.095 114.435 67.3093C113.933 68.5236 113.676 69.8249 113.678 71.1386V167.12L128.072 150.564H301.317C302.631 150.564 303.932 150.305 305.146 149.802C306.359 149.299 307.462 148.561 308.39 147.631C309.318 146.702 310.054 145.598 310.555 144.384C311.057 143.17 311.314 141.868 311.312 140.555V71.1386C311.314 69.8249 311.057 68.5236 310.555 67.3093C310.054 66.095 309.318 64.9914 308.39 64.0618C307.462 63.1321 306.359 62.3946 305.146 61.8914C303.932 61.3882 302.631 61.1291 301.317 61.1292Z" fill="#FAC13B"/>
<path d="M265.8 110.193H138.203C137.256 110.193 136.349 109.817 135.68 109.148C135.01 108.479 134.634 107.571 134.634 106.625V106.625C134.638 105.681 135.016 104.778 135.685 104.112C136.354 103.446 137.259 103.072 138.203 103.072H265.8C266.744 103.072 267.65 103.446 268.318 104.112C268.987 104.778 269.365 105.681 269.369 106.625V106.625C269.369 107.094 269.276 107.558 269.097 107.991C268.918 108.424 268.655 108.817 268.324 109.148C267.992 109.48 267.599 109.742 267.166 109.922C266.733 110.101 266.269 110.193 265.8 110.193V110.193Z" fill="white"/>
<path d="M265.8 126.584H138.203C137.734 126.584 137.27 126.491 136.837 126.312C136.404 126.133 136.011 125.87 135.68 125.539C135.348 125.207 135.085 124.814 134.906 124.381C134.727 123.948 134.634 123.484 134.634 123.015V123.015C134.638 122.072 135.016 121.168 135.685 120.502C136.354 119.836 137.259 119.462 138.203 119.462H265.8C266.744 119.462 267.65 119.836 268.318 120.502C268.987 121.168 269.365 122.072 269.369 123.015V123.015C269.369 123.484 269.276 123.948 269.097 124.381C268.918 124.814 268.655 125.207 268.324 125.539C267.992 125.87 267.599 126.133 267.166 126.312C266.733 126.491 266.269 126.584 265.8 126.584V126.584Z" fill="white"/>
<path d="M145.324 93.8034C152.406 93.8034 158.146 88.0629 158.146 80.9817C158.146 73.9004 152.406 68.1599 145.324 68.1599C138.243 68.1599 132.503 73.9004 132.503 80.9817C132.503 88.0629 138.243 93.8034 145.324 93.8034Z" fill="white"/>
<path d="M301.302 182.165H123.718C118.19 182.165 113.708 186.646 113.708 192.174V261.59C113.708 267.118 118.19 271.6 123.718 271.6H301.302C306.83 271.6 311.312 267.118 311.312 261.59V192.174C311.312 186.646 306.83 182.165 301.302 182.165Z" fill="#FAC13B"/>
<path d="M113.708 255.86V288.156L131.716 267.411" fill="#FAC13B"/>
<path d="M301.317 182.165H123.673C121.022 182.165 118.48 183.218 116.605 185.092C114.731 186.966 113.678 189.508 113.678 192.159V288.156L128.072 271.524H301.317C303.968 271.524 306.51 270.471 308.384 268.597C310.259 266.722 311.312 264.18 311.312 261.53V192.159C311.312 189.508 310.259 186.966 308.384 185.092C306.51 183.218 303.968 182.165 301.317 182.165Z" fill="#FAC13B"/>
<path opacity="0.1" d="M301.317 182.165H123.673C121.022 182.165 118.48 183.218 116.605 185.092C114.731 186.966 113.678 189.508 113.678 192.159V288.156L128.072 271.524H301.317C303.968 271.524 306.51 270.471 308.384 268.597C310.259 266.722 311.312 264.18 311.312 261.53V192.159C311.312 189.508 310.259 186.966 308.384 185.092C306.51 183.218 303.968 182.165 301.317 182.165Z" fill="#FAC13B"/>
<path d="M265.8 231.214H138.203C137.259 231.214 136.354 230.84 135.685 230.174C135.016 229.508 134.638 228.605 134.634 227.661V227.661C134.634 226.714 135.01 225.807 135.68 225.138C136.349 224.468 137.256 224.093 138.203 224.093H265.8C266.269 224.093 266.733 224.185 267.166 224.364C267.599 224.543 267.992 224.806 268.324 225.138C268.655 225.469 268.918 225.862 269.097 226.295C269.276 226.728 269.369 227.192 269.369 227.661V227.661C269.365 228.605 268.987 229.508 268.318 230.174C267.65 230.84 266.744 231.214 265.8 231.214V231.214Z" fill="white"/>
<path d="M265.8 247.604H138.203C137.259 247.604 136.354 247.23 135.685 246.564C135.016 245.898 134.638 244.995 134.634 244.051V244.051C134.634 243.105 135.01 242.197 135.68 241.528C136.349 240.859 137.256 240.483 138.203 240.483H265.8C266.269 240.483 266.733 240.575 267.166 240.754C267.599 240.934 267.992 241.196 268.324 241.528C268.655 241.859 268.918 242.253 269.097 242.685C269.276 243.118 269.369 243.582 269.369 244.051V244.051C269.365 244.995 268.987 245.898 268.318 246.564C267.65 247.23 266.744 247.604 265.8 247.604V247.604Z" fill="white"/>
<path d="M145.324 214.824C152.406 214.824 158.146 209.083 158.146 202.002C158.146 194.921 152.406 189.18 145.324 189.18C138.243 189.18 132.503 194.921 132.503 202.002C132.503 209.083 138.243 214.824 145.324 214.824Z" fill="white"/>
<path d="M154.366 510.375C231.249 510.375 293.576 448.048 293.576 371.165C293.576 294.281 231.249 231.955 154.366 231.955C77.4825 231.955 15.1561 294.281 15.1561 371.165C15.1561 448.048 77.4825 510.375 154.366 510.375Z" fill="#FAC13B"/>
<path d="M154.366 511.07C126.695 511.07 99.6462 502.865 76.6389 487.492C53.6315 472.119 35.6995 450.269 25.1104 424.704C14.5213 399.14 11.7507 371.01 17.149 343.871C22.5473 316.732 35.872 291.803 55.4381 272.237C75.0042 252.671 99.9329 239.346 127.072 233.948C154.211 228.549 182.341 231.32 207.906 241.909C233.47 252.498 255.32 270.43 270.693 293.437C286.066 316.445 294.271 343.494 294.271 371.165C294.227 408.256 279.473 443.816 253.246 470.044C227.018 496.272 191.458 511.026 154.366 511.07V511.07ZM154.366 232.635C126.968 232.635 100.184 240.76 77.4033 255.982C54.6222 271.203 36.8666 292.839 26.3816 318.152C15.8966 343.465 13.1533 371.318 18.4985 398.19C23.8437 425.063 37.0373 449.746 56.411 469.12C75.7847 488.494 100.468 501.687 127.34 507.032C154.212 512.378 182.066 509.634 207.379 499.149C232.692 488.664 254.327 470.909 269.549 448.128C284.771 425.347 292.896 398.563 292.896 371.165C292.86 334.435 278.253 299.221 252.281 273.249C226.31 247.278 191.095 232.671 154.366 232.635V232.635Z" fill="#242C53"/>
<path d="M117.488 462.716C105.712 458.371 94.918 451.725 85.7362 443.166C76.4736 434.263 69.2963 423.419 64.7194 411.414C59.5292 397.953 56.9581 383.625 57.1443 369.199C57.045 356.882 59.2183 344.652 63.5552 333.123C67.476 322.547 73.3487 312.802 80.8676 304.395C95.7261 288.103 114.94 276.407 136.237 270.692C146.686 267.889 157.458 266.466 168.276 266.459C177.253 266.426 186.2 267.492 194.918 269.634C203.342 271.719 211.405 275.057 218.838 279.538C226.183 283.959 232.764 289.54 238.327 296.064C244.148 303.073 248.586 311.123 251.406 319.787C254.671 329.65 256.281 339.986 256.169 350.375C256.056 370.362 248.898 389.668 235.953 404.897C230.358 411.288 223.71 416.673 216.297 420.819C209.918 424.519 202.699 426.528 195.326 426.655C190.265 426.716 185.322 425.124 181.249 422.119C179.193 420.609 177.519 418.637 176.361 416.364C175.203 414.09 174.594 411.577 174.581 409.025C165.953 421.182 154.28 427.26 139.563 427.26C127.578 427.26 118.002 423.162 110.835 414.967C103.669 406.772 100.1 396.692 100.13 384.727C100.163 375.625 101.748 366.595 104.818 358.025C107.821 349.361 112.124 341.204 117.579 333.833C122.993 326.565 129.908 320.547 137.855 316.188C145.779 311.712 154.73 309.368 163.831 309.384C170.154 309.32 176.393 310.843 181.975 313.815C187.414 316.7 191.825 321.201 194.6 326.697L195.78 322.856C196.319 321.243 197.232 319.78 198.444 318.587C199.656 317.393 201.132 316.503 202.754 315.988C204.375 315.474 206.095 315.35 207.773 315.626C209.452 315.903 211.041 316.572 212.412 317.579C213.286 318.293 213.98 319.204 214.438 320.236C214.895 321.268 215.102 322.394 215.042 323.522C215.044 324.602 214.865 325.675 214.513 326.697L195.749 389.067C193.633 396.203 192.574 401.097 192.574 403.748C192.574 408.244 194.867 410.487 199.454 410.477C205.441 410.477 211.323 407.725 217.099 402.221C223.322 396.012 228.125 388.527 231.176 380.282C234.768 371.263 236.605 361.64 236.588 351.932C236.677 343.379 235.427 334.864 232.884 326.697C230.776 319.654 227.41 313.051 222.95 307.207C218.716 301.883 213.602 297.321 207.83 293.72C202.067 290.091 195.779 287.373 189.187 285.661C182.434 283.901 175.482 283.011 168.503 283.015C159.629 283.026 150.8 284.273 142.27 286.72C133.512 289.226 125.165 292.989 117.488 297.893C109.747 302.782 102.737 308.743 96.668 315.599C90.4088 322.818 85.5297 331.126 82.2738 340.108C78.6531 349.901 76.8396 360.27 76.9213 370.711C76.7249 383.079 78.9702 395.364 83.5287 406.863C87.4195 416.835 93.5982 425.753 101.567 432.9C109.249 439.585 118.123 444.761 127.724 448.156C137.845 451.739 148.514 453.529 159.25 453.448C170.726 453.468 182.138 451.729 193.088 448.292C194.193 447.919 195.354 447.74 196.52 447.763C197.629 447.718 198.734 447.913 199.76 448.336C200.786 448.759 201.708 449.399 202.463 450.212C203.913 451.719 204.721 453.73 204.716 455.822C204.859 457.504 204.388 459.181 203.39 460.544C202.392 461.906 200.935 462.86 199.287 463.23C185.622 467.411 171.423 469.591 157.133 469.702C143.603 469.803 130.169 467.436 117.488 462.716V462.716ZM165.267 402.72C170.969 398.607 175.206 392.779 177.363 386.088L189.459 343.54L188.658 341.817C187.889 340.414 186.96 339.105 185.891 337.916C184.445 336.255 182.873 334.708 181.189 333.289C179.025 331.547 176.567 330.205 173.931 329.328C167.086 326.905 159.576 327.164 152.914 330.053C149.292 331.614 145.963 333.783 143.071 336.464C140.053 339.276 137.369 342.427 135.073 345.854C132.676 349.402 130.649 353.187 129.025 357.148C127.397 361.097 126.137 365.186 125.26 369.365C124.394 373.34 123.948 377.394 123.929 381.461C123.913 384.07 124.07 386.676 124.398 389.263C124.679 391.555 125.186 393.814 125.91 396.007C126.55 397.992 127.461 399.88 128.617 401.616C129.683 403.224 131.024 404.631 132.578 405.774C134.231 406.983 136.091 407.879 138.067 408.42C140.389 409.067 142.793 409.377 145.203 409.343C152.441 409.421 159.498 407.091 165.267 402.72V402.72Z" fill="#242C53"/>
<path d="M343.684 254.091C343.684 254.091 339.148 262.528 338.482 263.707C337.817 264.886 335.383 271.267 336.108 272.779C336.834 274.291 337.53 275.153 338.966 275.395C340.403 275.637 341.582 278.252 343.956 278.721C345.45 279.017 346.968 279.179 348.492 279.205C348.865 279.479 349.296 279.664 349.753 279.746C350.209 279.827 350.677 279.802 351.123 279.674C352.544 279.205 353.738 278.494 354.691 274.442C355.273 272.435 355.432 270.33 355.16 268.258L354.736 260.078L343.684 254.091Z" fill="white"/>
<path d="M350.276 280.55C349.557 280.541 348.856 280.331 348.25 279.946C346.756 279.905 345.269 279.738 343.804 279.447C342.446 279.076 341.229 278.307 340.312 277.239C339.904 276.751 339.385 276.368 338.8 276.12C338.022 275.947 337.302 275.578 336.707 275.049C336.112 274.52 335.661 273.848 335.398 273.096C334.415 271.146 337.273 264.206 337.802 263.329C338.497 262.164 342.943 253.818 342.988 253.727C343.087 253.553 343.25 253.423 343.442 253.365C343.626 253.291 343.832 253.291 344.016 253.365L355.054 259.337C355.167 259.402 355.262 259.494 355.33 259.605C355.399 259.716 355.439 259.842 355.447 259.972L355.87 268.137C356.147 270.28 355.977 272.458 355.371 274.533C354.434 278.57 353.209 279.689 351.304 280.324C350.975 280.453 350.628 280.529 350.276 280.55ZM344.001 255.119C342.912 257.145 339.737 263.087 339.132 264.1C338.301 265.476 336.305 271.478 336.774 272.416C337.53 273.928 338.104 274.472 339.087 274.638C339.982 274.903 340.777 275.43 341.37 276.15C342.084 277.011 343.036 277.642 344.107 277.965C345.548 278.244 347.009 278.401 348.476 278.434C348.652 278.434 348.822 278.492 348.96 278.6C349.232 278.797 349.544 278.93 349.873 278.991C350.203 279.051 350.542 279.036 350.865 278.948C351.909 278.6 352.997 278.237 353.889 274.26C354.438 272.356 354.598 270.361 354.358 268.394L353.95 260.531L344.001 255.119Z" fill="#242C53"/>
<path d="M369.901 481.269C369.901 481.269 363.445 491.777 363.445 494.317C363.445 496.857 372.336 501.529 376.146 503.223C379.956 504.916 386.73 506.247 392.234 507.033C397.737 507.819 409.168 510.057 405.842 505.763C402.515 501.469 382.073 490.159 381.226 488.813C380.178 487.557 379.002 486.412 377.718 485.396L369.901 481.269Z" fill="white"/>
<path d="M403.09 509.059C399.863 508.928 396.65 508.569 393.474 507.986L392.113 507.774C384.432 506.594 378.958 505.294 375.844 503.903C375.299 503.661 362.689 498.021 362.689 494.317C362.689 491.641 368.586 481.964 369.251 480.86C369.354 480.699 369.513 480.582 369.698 480.532C369.882 480.482 370.079 480.502 370.249 480.588L378.066 484.731C379.469 485.804 380.743 487.037 381.861 488.405C382.224 488.828 385.551 490.915 388.771 492.941C395.636 497.22 404.163 502.557 406.371 505.309C407.172 506.307 407.369 507.169 406.945 507.88C406.522 508.59 405.192 509.059 403.09 509.059ZM370.128 482.266C367.679 486.319 364.156 492.714 364.156 494.362C364.156 496.01 370.627 500.002 376.403 502.573C379.427 503.903 384.749 505.158 392.309 506.322L393.655 506.534C396.437 506.972 404.904 508.318 405.6 507.139C405.6 507.139 405.6 506.836 405.146 506.277C403.105 503.722 394.335 498.233 387.924 494.181C382.769 490.96 380.924 489.781 380.546 489.222C379.543 488.025 378.418 486.935 377.189 485.971L370.128 482.266Z" fill="#242C53"/>
<path d="M380.017 497.825L382.285 501.212C384.724 504.913 388.037 507.956 391.931 510.072C397.979 513.338 407.293 517.073 415.428 514.835C428.763 511.161 395.197 490.915 395.197 490.915C395.197 490.915 383.237 499.231 380.017 497.825Z" fill="white"/>
<path d="M410.136 516.271C403.423 516.271 396.528 513.459 391.569 510.737C387.572 508.568 384.166 505.453 381.65 501.665L379.382 498.263C379.287 498.134 379.236 497.978 379.236 497.817C379.236 497.657 379.287 497.501 379.382 497.371C379.488 497.245 379.632 497.157 379.793 497.119C379.954 497.08 380.122 497.095 380.274 497.16C382.224 498.006 389.89 493.667 394.713 490.325C394.834 490.243 394.976 490.2 395.122 490.2C395.267 490.2 395.41 490.243 395.53 490.325C398.055 491.837 420.191 505.445 419.238 512.34C419.026 513.852 417.726 515.001 415.579 515.606C413.803 516.071 411.972 516.294 410.136 516.271V516.271ZM381.499 498.672L382.905 500.804C385.282 504.392 388.5 507.345 392.279 509.407C398.448 512.733 407.399 516.256 415.231 514.109C417.59 513.444 417.741 512.416 417.787 512.083C418.467 507.139 402.107 496.026 395.212 491.822C392.808 493.425 385.581 498.188 381.499 498.672Z" fill="#242C53"/>
<path d="M383.857 499.428C387.531 504.985 393.097 509.02 399.522 510.783C410.484 513.913 413.628 513.126 415.972 509.997" fill="white"/>
<path d="M409.985 513.535C406.358 513.33 402.774 512.648 399.325 511.509C392.698 509.719 386.961 505.553 383.207 499.806C383.156 499.721 383.123 499.626 383.109 499.528C383.095 499.43 383.1 499.33 383.126 499.234C383.151 499.138 383.196 499.048 383.256 498.97C383.317 498.892 383.393 498.826 383.479 498.778C383.654 498.678 383.862 498.65 384.057 498.701C384.252 498.752 384.419 498.877 384.523 499.05C388.117 504.416 393.512 508.321 399.733 510.057C410.423 513.081 413.341 512.325 415.368 509.543C415.49 509.386 415.669 509.282 415.866 509.254C416.064 509.226 416.264 509.275 416.426 509.392C416.586 509.512 416.692 509.691 416.721 509.89C416.749 510.088 416.697 510.29 416.577 510.45C415.837 511.488 414.841 512.317 413.686 512.858C412.531 513.398 411.256 513.631 409.985 513.535V513.535Z" fill="#242C53"/>
<path d="M364.277 492.382C364.277 492.382 376.373 501.046 382.285 501.212Z" fill="white"/>
<path d="M382.224 501.968C376.176 501.802 364.307 493.35 363.808 493.002C363.649 492.881 363.542 492.704 363.511 492.506C363.48 492.309 363.527 492.107 363.642 491.943C363.698 491.862 363.769 491.793 363.852 491.74C363.935 491.686 364.028 491.65 364.125 491.633C364.223 491.616 364.322 491.619 364.418 491.641C364.514 491.663 364.605 491.704 364.685 491.762C364.806 491.853 376.675 500.305 382.27 500.456C382.472 500.464 382.662 500.551 382.801 500.698C382.939 500.845 383.015 501.04 383.011 501.242C383.007 501.341 382.983 501.439 382.942 501.529C382.9 501.62 382.841 501.701 382.768 501.768C382.695 501.835 382.609 501.888 382.516 501.922C382.423 501.956 382.324 501.972 382.224 501.968V501.968Z" fill="#242C53"/>
<path d="M338.013 256.994C338.013 256.994 348.749 274.79 351.047 278.918C353.345 283.045 382.315 316.173 393.806 344.69C405.297 373.206 416.35 398.94 415.881 407.226C415.413 415.512 377.688 485.396 377.688 485.396L369.871 481.269C369.871 481.269 381.816 415.497 380.455 408.602C379.094 401.707 336.864 333.183 336.864 333.183C336.864 333.183 317.087 319.394 308.817 303.291" fill="#242C53"/>
<path d="M339.541 301.462C339.541 301.462 333.568 314.329 333.568 316.173C333.568 318.018 367.135 416.888 376.796 439.416C382.912 453.848 388.281 468.584 392.884 483.567C392.884 483.567 396.573 488.103 393.806 492.76C391.039 497.417 380.017 500.577 377.719 496.434C375.42 492.291 352.876 470.73 343.23 449.078C333.583 427.426 319.779 390.67 311.947 376.88C301.629 359.224 292.419 340.944 284.368 322.146C274.237 298.241 263.82 272.325 263.82 272.325C277.473 273.466 291.219 271.925 304.281 267.789C325.449 260.895 334.521 247.695 334.521 247.695C334.521 247.695 339.903 261.454 341.279 264.115" fill="#242C53"/>
<path d="M342.701 340.29C342.596 340.288 342.494 340.256 342.408 340.197C342.322 340.138 342.256 340.054 342.217 339.957L331.633 312.439C331.596 312.337 331.591 312.226 331.618 312.121C331.645 312.016 331.703 311.921 331.784 311.849L343.638 301.688C343.739 301.595 343.871 301.543 344.009 301.543C344.146 301.543 344.278 301.595 344.379 301.688C344.471 301.787 344.523 301.916 344.523 302.051C344.523 302.186 344.471 302.316 344.379 302.414L332.797 312.348L343.245 339.564C343.295 339.693 343.293 339.836 343.24 339.963C343.186 340.09 343.085 340.191 342.958 340.244L342.701 340.29Z" fill="white"/>
<path d="M332.101 312.756C331.972 312.758 331.848 312.709 331.754 312.62C331.701 312.572 331.659 312.514 331.631 312.449C331.602 312.383 331.587 312.313 331.587 312.242C331.587 312.166 331.587 303.866 327.868 298.634C326.945 297.288 326.205 296.23 325.585 295.368C323.649 292.616 323.06 291.785 322.712 290.409C322.472 288.8 322.472 287.164 322.712 285.555C322.738 285.422 322.812 285.303 322.922 285.222C323.031 285.14 323.166 285.103 323.302 285.117C323.369 285.126 323.435 285.149 323.494 285.183C323.553 285.218 323.604 285.265 323.645 285.319C323.686 285.374 323.715 285.437 323.731 285.503C323.748 285.57 323.751 285.639 323.74 285.706C323.527 287.186 323.527 288.688 323.74 290.167C324.042 291.346 324.557 292.072 326.462 294.778C327.066 295.64 327.822 296.699 328.745 298.044C332.101 302.868 332.57 309.793 332.646 311.773L354.131 310.942C354.268 310.941 354.4 310.992 354.501 311.085C354.602 311.177 354.664 311.304 354.676 311.441C354.68 311.509 354.67 311.577 354.647 311.641C354.623 311.705 354.587 311.764 354.541 311.813C354.494 311.863 354.437 311.902 354.375 311.929C354.312 311.956 354.245 311.97 354.177 311.97L332.162 312.817L332.101 312.756Z" fill="white"/>
<path d="M404.103 410.643C394.532 410.643 382.375 404.444 381.831 404.172C381.711 404.108 381.621 403.998 381.581 403.868C381.541 403.737 381.555 403.597 381.619 403.476C381.65 403.415 381.692 403.361 381.743 403.317C381.795 403.272 381.855 403.239 381.92 403.217C381.984 403.196 382.053 403.188 382.12 403.194C382.188 403.199 382.254 403.218 382.315 403.249C382.451 403.325 396.27 410.371 405.736 409.539C405.804 409.533 405.874 409.541 405.939 409.562C406.005 409.583 406.066 409.617 406.118 409.662C406.17 409.708 406.213 409.763 406.243 409.825C406.274 409.887 406.291 409.954 406.295 410.023C406.301 410.091 406.294 410.159 406.274 410.224C406.254 410.288 406.221 410.348 406.177 410.4C406.134 410.452 406.08 410.495 406.02 410.527C405.96 410.558 405.894 410.577 405.826 410.583C405.267 410.628 404.692 410.643 404.103 410.643Z" fill="white"/>
<path d="M402.818 418.626H402.697C394.214 416.494 384.689 408.692 384.281 408.36C384.188 408.262 384.137 408.132 384.137 407.997C384.137 407.862 384.188 407.732 384.281 407.634C384.323 407.581 384.376 407.537 384.435 407.505C384.495 407.472 384.56 407.452 384.628 407.445C384.695 407.438 384.763 407.445 384.828 407.464C384.893 407.483 384.954 407.515 385.006 407.558C385.097 407.634 394.759 415.557 403.014 417.613C403.08 417.631 403.142 417.661 403.196 417.703C403.25 417.744 403.295 417.796 403.328 417.855C403.362 417.914 403.384 417.979 403.392 418.047C403.401 418.114 403.395 418.183 403.377 418.248C403.348 418.37 403.275 418.476 403.171 418.546C403.068 418.616 402.941 418.645 402.818 418.626Z" fill="white"/>
<path d="M331.678 304.712C331.596 304.712 331.515 304.693 331.442 304.656C331.368 304.62 331.304 304.566 331.255 304.501C331.215 304.444 331.187 304.381 331.172 304.314C331.158 304.246 331.157 304.177 331.169 304.109C331.182 304.041 331.208 303.977 331.246 303.919C331.284 303.862 331.334 303.813 331.391 303.775C333.432 302.354 336.668 299.617 336.668 298.271C336.668 297.379 335.564 296.321 334.385 295.247C333.079 294.157 332.001 292.821 331.21 291.316C330.438 289.517 327.671 282.456 328.186 280.732C328.206 280.667 328.239 280.607 328.283 280.556C328.327 280.504 328.381 280.461 328.441 280.43C328.502 280.399 328.568 280.381 328.635 280.375C328.703 280.37 328.771 280.378 328.836 280.399C328.967 280.444 329.076 280.539 329.139 280.664C329.201 280.788 329.212 280.932 329.168 281.065C328.851 281.987 330.499 287.113 332.117 290.862C332.856 292.229 333.852 293.441 335.05 294.431C336.456 295.776 337.666 296.926 337.666 298.256C337.666 300.585 332.525 304.198 331.935 304.607C331.86 304.663 331.772 304.7 331.678 304.712V304.712Z" fill="white"/>
<path d="M281.298 307.676C281.189 307.68 281.082 307.65 280.991 307.589C280.9 307.528 280.831 307.439 280.794 307.337C280.757 307.234 280.754 307.122 280.785 307.017C280.815 306.912 280.879 306.82 280.966 306.754L285.199 303.367C289.267 300.131 291.777 291.86 291.807 291.77C291.849 291.639 291.94 291.529 292.061 291.464C292.183 291.399 292.325 291.384 292.457 291.422C292.588 291.464 292.698 291.555 292.763 291.676C292.828 291.798 292.843 291.94 292.805 292.072C292.699 292.42 290.159 300.736 285.85 304.168L281.616 307.555C281.528 307.631 281.415 307.674 281.298 307.676V307.676Z" fill="white"/>
<path d="M381.816 498.49C381.74 498.488 381.666 498.469 381.598 498.435C381.53 498.401 381.47 498.353 381.423 498.294C376.01 491.658 371.122 484.611 366.802 477.216C360.95 466.753 344.122 438.131 343.94 437.904C342.382 434.46 341.225 430.848 340.493 427.139C340.387 426.564 340.312 426.035 340.236 425.627C339.677 421.817 339.435 420.244 334.369 416.978C329.304 413.712 328.987 408.027 328.563 401.934C328.473 400.498 328.367 399.016 328.2 397.549C327.52 391.501 311.463 364.285 299.745 344.508C297.084 339.972 294.664 335.92 292.699 332.548C282.205 314.495 274.948 290.757 274.872 290.515C274.834 290.382 274.849 290.24 274.914 290.119C274.979 289.998 275.089 289.906 275.22 289.864C275.284 289.844 275.352 289.836 275.42 289.843C275.487 289.849 275.553 289.869 275.612 289.902C275.672 289.934 275.724 289.979 275.766 290.032C275.807 290.085 275.838 290.147 275.855 290.212C275.931 290.454 283.158 314.087 293.591 332.019C295.556 335.391 297.976 339.488 300.637 343.979C312.415 363.862 328.533 391.108 329.229 397.428C329.395 398.94 329.501 400.452 329.607 401.873C330.015 407.921 330.363 413.183 334.929 416.116C340.387 419.624 340.659 421.454 341.264 425.461C341.264 425.96 341.415 426.474 341.506 427.048C342.224 430.647 343.35 434.152 344.863 437.496C344.999 437.753 361.842 466.375 367.709 476.808C372.001 484.142 376.854 491.133 382.224 497.719C382.267 497.772 382.299 497.832 382.319 497.897C382.338 497.962 382.345 498.03 382.337 498.098C382.33 498.165 382.31 498.231 382.278 498.29C382.245 498.35 382.201 498.402 382.149 498.445C382.046 498.496 381.929 498.512 381.816 498.49V498.49Z" fill="white"/>
<path d="M263.82 272.325C263.82 272.325 264.787 283.03 269.021 286.417C273.254 289.804 285.955 292.768 303.313 289.441C320.671 286.115 339.722 271.297 341.415 266.156C343.109 261.016 334.49 247.71 334.49 247.71C334.49 247.71 324.481 261.923 296.539 266.58C268.597 271.237 263.82 272.325 263.82 272.325Z" fill="white"/>
<path d="M288.601 291.634C278.365 291.634 271.349 289.26 268.537 287.007C264.107 283.454 263.109 272.855 263.063 272.401C263.048 272.221 263.097 272.041 263.202 271.894C263.308 271.747 263.462 271.642 263.638 271.6C263.835 271.6 268.764 270.375 296.418 265.763C323.634 261.227 333.765 247.347 333.87 247.211C333.942 247.113 334.035 247.034 334.143 246.978C334.25 246.923 334.369 246.894 334.49 246.894V246.894C334.614 246.896 334.736 246.929 334.844 246.99C334.952 247.051 335.043 247.137 335.11 247.241C336.017 248.632 343.88 261.061 342.126 266.338C340.266 271.902 320.777 286.735 303.449 290.122C298.56 291.101 293.587 291.607 288.601 291.634V291.634ZM264.651 272.93C264.938 275.259 266.163 283.151 269.489 285.828C273.269 288.852 285.381 292.117 303.162 288.64C320.64 285.223 339.193 270.39 340.705 265.854C341.899 262.255 337.015 253.168 334.415 248.965C331.723 252.186 320.928 263.223 296.615 267.26C274.207 271.01 266.677 272.431 264.651 272.93V272.93Z" fill="#242C53"/>
<path d="M375.42 168.557C368.511 164.021 314.714 122.108 309.648 120.263C304.583 118.419 294.528 120.263 294.528 120.263C294.528 120.263 263.351 124.074 256.819 126.704C256.199 126.946 242.153 135.02 241.699 135.444C236.634 139.587 214.483 149.778 208.526 162.66C201.767 177.235 261.159 264.992 263.926 272.34C266.693 279.689 281.193 281.503 294.528 279.658C307.864 277.814 319.567 275.122 329.229 264.07C330.981 261.868 332.449 259.455 333.599 256.888C334.979 254.019 335.332 250.762 334.596 247.664C331.149 233.3 322.349 191.887 316.543 164.504C326.22 170.749 346.345 183.435 358.048 187.91C373.682 193.958 385.642 189.755 385.642 184.69C385.642 179.624 382.315 173.153 375.42 168.557Z" fill="white"/>
<path d="M356.747 177.493C347.529 176.583 338.601 173.766 330.529 169.222C330.529 169.222 342.489 163.703 342.943 160.936C343.396 158.169 326.386 160.483 328.685 159.56C330.983 158.638 334.203 156.34 328.685 156.34C324.285 156.05 319.951 155.123 315.817 153.588L316.437 164.459C321.699 167.861 330.045 173.138 338.422 177.976C346.301 182.119 354.414 185.799 362.72 188.999C362.72 188.999 372.835 179.337 356.747 177.493Z" fill="#FAC13B"/>
<g style="mix-blend-mode:multiply">
<path d="M294.422 279.643L296.131 279.401C299.82 277.617 306.065 276.498 312.143 274.986C321.336 272.688 311.221 272.688 296.04 264.871C280.86 257.054 274.872 245.563 261.083 229.006C247.293 212.45 241.775 204.164 244.542 202.335C247.309 200.505 239.023 200.49 235.802 198.645C232.582 196.801 240.338 196.816 246.84 190.375C253.341 183.934 234.411 191.751 232.582 191.297C230.752 190.843 234.411 184.856 234.411 184.856L221.075 198.645L253.266 253.833L255.11 255.209L257.227 258.233L263.275 271.237C263.517 271.69 263.683 272.068 263.789 272.325C266.571 279.689 281.087 281.503 294.422 279.643Z" fill="#FAC13B"/>
</g>
<path d="M233.459 151.063C243.634 149.551 272 165.729 272 165.729C256.411 155.145 242.773 145.227 233.444 140.751L216.252 152.847L215.073 153.951C217.069 153.558 224.719 152.303 233.459 151.063Z" fill="#FAC13B"/>
<path opacity="0.5" d="M356.747 177.493C347.529 176.583 338.601 173.766 330.529 169.222C330.529 169.222 342.489 163.703 342.943 160.936C343.396 158.169 326.386 160.483 328.685 159.56C330.983 158.638 334.203 156.34 328.685 156.34C324.285 156.05 319.951 155.123 315.817 153.588L316.437 164.459C321.699 167.861 330.045 173.138 338.422 177.976C346.301 182.119 354.414 185.799 362.72 188.999C362.72 188.999 372.835 179.337 356.747 177.493Z" fill="white"/>
<path opacity="0.5" d="M294.422 279.643L296.131 279.401C299.82 277.617 306.065 276.498 312.143 274.986C321.336 272.688 311.221 272.688 296.04 264.871C280.86 257.054 274.872 245.563 261.083 229.006C247.293 212.45 241.775 204.164 244.542 202.335C247.309 200.505 239.023 200.49 235.802 198.645C232.582 196.801 240.338 196.816 246.84 190.375C253.341 183.934 234.411 191.751 232.582 191.297C230.752 190.843 234.411 184.856 234.411 184.856L221.075 198.645L253.266 253.833L255.11 255.209L257.227 258.233L263.275 271.237C263.517 271.69 263.683 272.068 263.789 272.325C266.571 279.689 281.087 281.503 294.422 279.643Z" fill="white"/>
<path opacity="0.5" d="M233.459 151.063C243.634 149.551 272 165.729 272 165.729C256.411 155.145 242.773 145.227 233.444 140.751L216.252 152.847L215.073 153.951C217.069 153.558 224.719 152.303 233.459 151.063Z" fill="white"/>
<path d="M284.745 281.08C274.555 281.08 265.377 278.645 263.109 272.597C262.443 270.813 257.968 263.525 252.298 254.363C228.212 215.293 202.916 172.715 207.739 162.327C212.275 152.53 225.687 144.44 234.562 139.088C236.824 137.803 239.01 136.389 241.109 134.854C241.653 134.416 255.73 126.311 256.486 126.009C263.048 123.363 293.107 119.674 294.392 119.523C294.77 119.447 304.719 117.663 309.905 119.523C313.262 120.747 336.259 138.15 354.736 152.136C364.745 159.696 373.379 166.259 375.828 167.891C383.54 173.032 386.291 179.897 386.291 184.614C386.236 185.49 385.964 186.338 385.499 187.082C385.035 187.826 384.392 188.444 383.63 188.878C379.17 191.902 369.417 193.036 357.669 188.545C349.459 185.4 335.609 177.644 317.556 166.047C323.604 194.85 331.905 233.648 335.216 247.438C335.995 250.707 335.627 254.145 334.173 257.175C332.991 259.814 331.466 262.285 329.637 264.523C319.537 276.06 307.244 278.6 294.483 280.354C291.257 280.819 288.004 281.061 284.745 281.08V281.08ZM303.494 120.203C300.52 120.248 297.553 120.516 294.619 121.004C294.256 121.004 263.426 124.83 257.046 127.4C256.214 127.778 242.742 135.535 242.062 136.034C239.909 137.616 237.662 139.065 235.333 140.373C226.624 145.635 213.47 153.588 209.115 163.053C204.216 173.637 236.331 225.665 253.583 253.652C259.737 263.631 263.804 270.284 264.53 272.144C267.206 279.281 281.842 280.687 294.316 278.963C306.79 277.239 318.796 274.775 328.548 263.631C330.262 261.484 331.695 259.126 332.812 256.616C334.111 253.905 334.442 250.831 333.749 247.907C330.362 233.815 321.835 193.671 315.696 164.747C315.666 164.599 315.681 164.446 315.737 164.306C315.794 164.166 315.89 164.046 316.014 163.96C316.137 163.879 316.282 163.836 316.429 163.836C316.577 163.836 316.722 163.879 316.845 163.96C335.564 176.056 349.867 184.115 358.214 187.29C369.372 191.569 378.777 190.556 382.768 187.805C383.318 187.494 383.787 187.059 384.136 186.533C384.486 186.008 384.706 185.407 384.779 184.781C384.779 180.456 382.209 174.121 374.997 169.313C372.502 167.65 363.853 161.103 353.829 153.512C336.395 140.328 312.536 122.259 309.391 121.11C307.488 120.488 305.496 120.182 303.494 120.203V120.203Z" fill="#242C53"/>
<path d="M215.814 153.24C215.814 153.24 210.295 159.288 208.148 162.085C196.626 176.888 159.96 224.319 159.552 228.145C159.144 231.97 160.883 234.54 169.849 237.988C178.815 241.435 238.796 181.333 238.796 181.333" fill="white"/>
<g style="mix-blend-mode:multiply" opacity="0.8">
<path d="M215.904 153.422L215.133 153.921C214.014 155.16 211.595 157.867 209.72 160.09L181.869 196.619C181.869 196.619 181.007 197.587 179.646 199.19C169.198 213.115 160.096 225.68 159.537 227.918C159.537 227.993 159.537 228.069 159.537 228.13C159.174 231.743 160.928 234.495 169.849 237.927C171.436 238.532 174.581 237.171 178.709 234.525C176.612 234.104 174.609 233.304 172.797 232.167C167.732 228.946 171.875 225.725 171.875 225.725C171.875 225.725 178.452 228.356 184.938 230.125C186.284 229.112 187.69 228.024 189.127 226.875C187.745 225.97 186.436 224.959 185.211 223.851C179.692 218.801 175.095 213.735 175.095 213.735L217.25 154.903L215.904 153.422Z" fill="#FAC13B"/>
</g>
<path opacity="0.5" d="M215.904 153.422L215.133 153.921C214.014 155.16 211.595 157.867 209.72 160.09L181.869 196.619C181.869 196.619 181.007 197.587 179.646 199.19C169.198 213.115 160.096 225.68 159.537 227.918C159.537 227.993 159.537 228.069 159.537 228.13C159.174 231.743 160.928 234.495 169.849 237.927C171.436 238.532 174.581 237.171 178.709 234.525C176.612 234.104 174.609 233.304 172.797 232.167C167.732 228.946 171.875 225.725 171.875 225.725C171.875 225.725 178.452 228.356 184.938 230.125C186.284 229.112 187.69 228.024 189.127 226.875C187.745 225.97 186.436 224.959 185.211 223.851C179.692 218.801 175.095 213.735 175.095 213.735L217.25 154.903L215.904 153.422Z" fill="white"/>
<path d="M170.544 238.865C170.204 238.869 169.867 238.812 169.546 238.698C161.2 235.478 158.267 232.65 158.766 228.114C159.174 224.35 189.49 184.871 207.513 161.677C209.66 158.925 214.997 153.044 215.224 152.802C215.288 152.721 215.369 152.655 215.46 152.607C215.551 152.559 215.651 152.53 215.754 152.521C215.856 152.513 215.96 152.526 216.057 152.559C216.155 152.593 216.244 152.645 216.321 152.715C216.397 152.784 216.459 152.868 216.501 152.962C216.544 153.055 216.567 153.157 216.569 153.26C216.571 153.363 216.552 153.465 216.513 153.561C216.474 153.656 216.416 153.743 216.343 153.815C216.343 153.815 210.809 159.863 208.707 162.615C179.586 200.082 160.565 225.862 160.323 228.281C159.975 231.501 161.472 234.011 170.151 237.353C176.396 239.757 214.317 204.875 238.282 180.849C238.424 180.707 238.617 180.627 238.819 180.627C239.02 180.627 239.213 180.707 239.355 180.849C239.498 180.992 239.578 181.185 239.578 181.386C239.578 181.587 239.498 181.78 239.355 181.923C233.353 187.85 182.126 238.865 170.544 238.865Z" fill="#242C53"/>
<path d="M337.182 150.488L316.437 164.459C319.461 164.036 333.795 158.955 333.795 158.955" fill="white"/>
<path d="M316.437 165.215C316.285 165.217 316.136 165.172 316.012 165.085C315.887 164.998 315.792 164.875 315.742 164.731C315.678 164.574 315.67 164.399 315.72 164.237C315.769 164.075 315.873 163.934 316.014 163.839L336.774 149.868C336.855 149.811 336.946 149.771 337.043 149.75C337.14 149.729 337.24 149.728 337.337 149.746C337.434 149.765 337.527 149.802 337.609 149.857C337.692 149.912 337.762 149.982 337.817 150.065C337.927 150.234 337.967 150.439 337.927 150.637C337.888 150.835 337.772 151.01 337.605 151.123L320.595 162.584C325.812 160.982 333.447 158.29 333.553 158.245C333.754 158.179 333.972 158.195 334.161 158.29C334.349 158.385 334.492 158.551 334.559 158.751C334.625 158.952 334.609 159.17 334.514 159.359C334.419 159.548 334.253 159.691 334.052 159.757C333.462 159.953 319.552 164.867 316.543 165.291L316.437 165.215Z" fill="#242C53"/>
<path d="M336.335 159.288C336.159 159.285 335.99 159.221 335.856 159.109C335.721 158.996 335.629 158.841 335.594 158.668C335.559 158.472 335.603 158.269 335.716 158.105C335.829 157.941 336.003 157.828 336.199 157.791L340.856 156.945C341.054 156.909 341.259 156.952 341.425 157.065C341.592 157.178 341.708 157.352 341.748 157.549C341.768 157.649 341.767 157.751 341.746 157.85C341.725 157.95 341.685 158.044 341.627 158.127C341.569 158.21 341.495 158.281 341.41 158.335C341.324 158.389 341.228 158.425 341.128 158.441L336.471 159.288H336.335Z" fill="#242C53"/>
<path d="M182.64 213.463C179.439 213.368 176.255 213.971 173.311 215.232Z" fill="white"/>
<path d="M173.311 216.034C173.111 216.072 172.903 216.029 172.734 215.914C172.566 215.799 172.45 215.622 172.411 215.421C172.373 215.221 172.416 215.013 172.531 214.845C172.646 214.676 172.823 214.56 173.024 214.522C176.076 213.21 179.38 212.586 182.701 212.692C182.8 212.7 182.897 212.727 182.986 212.772C183.075 212.817 183.154 212.88 183.218 212.956C183.283 213.031 183.332 213.119 183.362 213.214C183.393 213.309 183.404 213.409 183.396 213.509C183.377 213.708 183.281 213.892 183.129 214.021C182.976 214.151 182.779 214.217 182.58 214.204C179.502 214.115 176.442 214.698 173.614 215.913C173.523 215.975 173.42 216.017 173.311 216.034V216.034Z" fill="#242C53"/>
<path d="M227.849 192.734C227.849 192.734 239.507 189.165 242.591 186.792Z" fill="white"/>
<path d="M227.849 193.49C227.649 193.518 227.445 193.465 227.284 193.343C227.122 193.221 227.016 193.04 226.987 192.839C226.959 192.639 227.012 192.435 227.134 192.274C227.256 192.112 227.437 192.006 227.638 191.978C227.744 191.978 239.189 188.44 242.138 186.172C242.296 186.05 242.497 185.995 242.695 186.021C242.893 186.046 243.074 186.15 243.196 186.308C243.314 186.468 243.366 186.667 243.341 186.864C243.315 187.061 243.215 187.241 243.06 187.366C239.885 189.8 228.56 193.278 228.076 193.414C228.006 193.454 227.929 193.48 227.849 193.49V193.49Z" fill="#242C53"/>
<path d="M245.449 185.612C245.449 185.612 247.354 183.949 248.064 183.949Z" fill="white"/>
<path d="M245.449 186.368C245.34 186.367 245.234 186.344 245.135 186.3C245.036 186.255 244.947 186.191 244.874 186.111C244.735 185.967 244.657 185.775 244.657 185.574C244.657 185.374 244.735 185.181 244.874 185.038C245.729 184.156 246.805 183.519 247.989 183.193C248.189 183.193 248.382 183.273 248.523 183.414C248.665 183.556 248.745 183.748 248.745 183.949C248.741 184.148 248.66 184.338 248.519 184.479C248.378 184.62 248.188 184.701 247.989 184.705C247.21 185.097 246.496 185.607 245.872 186.217C245.751 186.311 245.602 186.364 245.449 186.368V186.368Z" fill="#242C53"/>
<path d="M316.437 165.215C316.25 165.213 316.07 165.143 315.931 165.017C315.792 164.892 315.703 164.721 315.681 164.535L313.791 145.106C313.781 145.006 313.791 144.906 313.82 144.811C313.849 144.715 313.896 144.626 313.959 144.549C314.023 144.472 314.1 144.408 314.188 144.361C314.276 144.313 314.373 144.284 314.472 144.274C314.571 144.264 314.671 144.274 314.767 144.303C314.862 144.331 314.951 144.379 315.028 144.442C315.106 144.505 315.17 144.583 315.217 144.671C315.264 144.759 315.293 144.855 315.303 144.954L317.209 164.399C317.219 164.497 317.209 164.597 317.181 164.692C317.152 164.787 317.104 164.875 317.041 164.951C316.977 165.027 316.899 165.09 316.811 165.135C316.723 165.18 316.627 165.208 316.528 165.215H316.437Z" fill="#242C53"/>
<path d="M159.507 228.341C159.507 228.341 156.831 238.577 173.992 242.826C182.142 244.837 236.075 257.946 236.075 257.946C236.075 257.946 240.898 247.604 238.146 247.604C235.394 247.604 185.664 214.537 185.664 214.537" fill="white"/>
<path d="M167.52 240.573L230.056 256.54L231.72 252.578C231.72 252.578 208.163 247.861 193.451 240.482C178.739 233.104 177.802 235.417 172.752 232.212C167.702 229.006 171.829 225.771 171.829 225.771C171.829 225.771 185.634 231.29 192.997 231.743C200.361 232.197 190.699 228.991 185.18 223.926C182.897 221.84 180.78 219.738 179.132 218.014L159.476 228.326C159.476 228.326 157.571 235.75 167.52 240.573Z" fill="#FAC13B"/>
<path opacity="0.5" d="M167.52 240.573L230.056 256.54L231.72 252.578C231.72 252.578 208.163 247.861 193.451 240.482C178.739 233.104 177.802 235.417 172.752 232.212C167.702 229.006 171.829 225.771 171.829 225.771C171.829 225.771 185.634 231.29 192.997 231.743C200.361 232.197 190.699 228.991 185.18 223.926C182.897 221.84 180.78 219.738 179.132 218.014L159.476 228.326C159.476 228.326 157.571 235.75 167.52 240.573Z" fill="white"/>
<path d="M236.074 258.823H235.893C235.893 258.823 181.96 245.654 173.81 243.703C167.006 242.025 162.394 239.167 160.111 235.372C158.781 233.269 158.305 230.738 158.781 228.296C158.834 228.103 158.96 227.939 159.132 227.837C159.304 227.736 159.509 227.705 159.703 227.752C159.895 227.805 160.058 227.931 160.157 228.104C160.256 228.277 160.283 228.481 160.232 228.674V228.674C159.89 230.741 160.321 232.861 161.442 234.631C163.513 238.109 167.807 240.679 174.173 242.191C181.733 244.081 229.694 255.799 235.651 257.22C237.511 253.108 238.675 249.116 238.146 248.496C235.273 248.496 193.617 220.827 185.301 215.232C185.134 215.119 185.019 214.944 184.979 214.746C184.94 214.548 184.979 214.343 185.09 214.174C185.144 214.091 185.215 214.021 185.297 213.966C185.38 213.911 185.472 213.874 185.57 213.855C185.667 213.837 185.767 213.838 185.864 213.859C185.96 213.88 186.052 213.92 186.133 213.977C205.713 227.026 235.742 246.576 238.176 246.954C238.422 246.958 238.664 247.022 238.88 247.14C239.096 247.259 239.28 247.428 239.416 247.634C240.671 249.615 237.692 256.359 236.739 258.385C236.68 258.512 236.587 258.621 236.469 258.699C236.352 258.776 236.215 258.819 236.074 258.823V258.823Z" fill="#242C53"/>
<path d="M238.146 247.649C238.146 247.649 255.851 255.935 257.227 258.233C258.603 260.532 261.763 272.476 261.763 276.166C261.763 279.855 261.31 279.84 259.012 279.84C256.713 279.84 250.726 271.101 249.35 269.256C247.974 267.411 244.814 267.411 240.61 264.72C239.439 263.977 238.433 263.002 237.653 261.855C236.872 260.708 236.335 259.414 236.074 258.052L238.146 247.649Z" fill="white"/>
<path d="M259.072 280.596C257.091 280.596 253.825 276.65 249.531 270.723C249.229 270.299 248.987 269.951 248.805 269.725C247.941 268.866 246.859 268.259 245.675 267.971C243.768 267.293 241.946 266.395 240.247 265.294C238.975 264.494 237.881 263.441 237.033 262.201C236.185 260.96 235.602 259.558 235.318 258.082C235.311 258.007 235.311 257.931 235.318 257.855L237.39 247.498C237.413 247.387 237.46 247.282 237.528 247.19C237.596 247.099 237.683 247.024 237.783 246.969C237.886 246.917 238 246.89 238.115 246.89C238.231 246.89 238.345 246.917 238.448 246.969C241.472 248.36 256.441 255.466 257.862 257.84C259.283 260.214 262.564 272.371 262.564 276.166C262.564 279.961 261.869 280.596 259.072 280.596ZM236.845 258.022C237.115 259.262 237.63 260.436 238.359 261.475C239.089 262.513 240.019 263.396 241.094 264.07C242.699 265.103 244.419 265.945 246.22 266.58C247.675 266.958 248.992 267.745 250.015 268.848C250.196 269.074 250.453 269.422 250.756 269.861C256.29 277.511 258.316 279.114 259.072 279.114C261.068 279.114 261.068 279.114 261.068 276.196C261.068 272.628 257.923 260.879 256.532 258.642C255.655 257.13 245.449 251.989 238.645 248.768L236.845 258.022Z" fill="#242C53"/>
<path d="M230.586 256.978C230.511 256.993 230.434 256.993 230.359 256.978C230.264 256.949 230.175 256.901 230.099 256.837C230.022 256.773 229.96 256.694 229.914 256.605C229.869 256.516 229.842 256.419 229.836 256.32C229.829 256.22 229.842 256.12 229.875 256.026L232.627 247.483C232.655 247.385 232.702 247.294 232.766 247.215C232.83 247.136 232.909 247.071 232.999 247.023C233.089 246.975 233.187 246.946 233.289 246.937C233.39 246.929 233.492 246.94 233.589 246.972C233.685 247.003 233.775 247.054 233.851 247.121C233.928 247.188 233.99 247.269 234.034 247.361C234.079 247.452 234.104 247.552 234.109 247.653C234.114 247.755 234.099 247.856 234.064 247.952L231.312 256.495C231.254 256.639 231.153 256.763 231.024 256.849C230.894 256.935 230.742 256.981 230.586 256.978V256.978Z" fill="#242C53"/>
<path d="M364.836 183.223C364.836 183.223 360.3 198.857 358.395 208.05C356.49 217.243 343.684 254.045 343.684 254.045L354.721 260.94C354.721 260.94 379.095 210.439 383.736 199.371C388.378 188.303 386.957 180.048 382.361 175.451" fill="white"/>
<path d="M354.721 261.741C354.581 261.738 354.445 261.696 354.328 261.62L343.29 254.726C343.144 254.635 343.032 254.498 342.975 254.335C342.917 254.173 342.916 253.996 342.973 253.833C343.094 253.471 355.855 216.986 357.654 207.959C359.454 198.933 364.08 183.223 364.08 183.057C364.137 182.856 364.27 182.686 364.452 182.584C364.633 182.482 364.848 182.456 365.048 182.512C365.249 182.569 365.419 182.702 365.521 182.884C365.623 183.065 365.649 183.28 365.592 183.48C365.592 183.631 360.981 199.19 359.166 208.247C357.443 216.88 346.33 248.904 344.621 253.773L354.434 259.897C357.458 253.531 378.792 209.229 383.026 199.069C387.108 189.256 386.67 180.925 381.816 175.981C381.676 175.84 381.597 175.65 381.597 175.451C381.597 175.253 381.676 175.063 381.816 174.922C381.957 174.782 382.147 174.703 382.345 174.703C382.544 174.703 382.734 174.782 382.875 174.922C388.197 180.229 388.756 189.256 384.387 199.659C379.851 210.59 355.659 260.804 355.402 261.318C355.357 261.414 355.292 261.498 355.211 261.566C355.13 261.634 355.035 261.684 354.933 261.711L354.721 261.741Z" fill="#242C53"/>
<path d="M345.77 248.783C346.602 248.783 357.08 254.559 357.08 254.559Z" fill="#242C53"/>
<path d="M273.255 165.729C270.714 165.306 257.152 156.415 247.838 149.218C238.524 142.021 233.444 140.751 233.444 140.751L227.093 144.985C226.132 141.89 226.437 138.541 227.94 135.671C230.48 131.014 239.371 126.357 248.261 122.97C257.152 119.583 267.312 116.695 273.678 116.695C280.043 116.695 281.722 119.235 281.722 122.622C281.722 126.009 281.722 136.593 279.605 144.637C277.488 152.681 273.255 165.729 273.255 165.729Z" fill="white"/>
<g style="mix-blend-mode:multiply">
<path d="M269.263 121.579C269.263 121.579 265.347 133.312 261.43 136.835C258.406 139.371 255.134 141.595 251.663 143.473C251.663 143.473 249.319 135.262 243.453 135.262C237.586 135.262 228.59 139.179 228.59 139.179C228.59 139.179 228.59 136.049 236.014 132.133L243.453 128.232L260.659 121.579H269.263Z" fill="#FAC13B"/>
</g>
<path opacity="0.5" d="M269.263 121.579C269.263 121.579 265.347 133.312 261.43 136.835C258.406 139.371 255.134 141.595 251.663 143.473C251.663 143.473 249.319 135.262 243.453 135.262C237.586 135.262 228.59 139.179 228.59 139.179C228.59 139.179 228.59 136.049 236.014 132.133L243.453 128.232L260.659 121.579H269.263Z" fill="white"/>
<path d="M273.255 166.485H273.119C270.306 166.017 256.381 156.778 247.415 149.853C239.628 143.805 234.82 142.006 233.595 141.613L227.547 145.65C227.448 145.71 227.338 145.748 227.224 145.764C227.109 145.78 226.993 145.772 226.882 145.741C226.773 145.703 226.674 145.642 226.593 145.56C226.512 145.479 226.45 145.381 226.413 145.272C225.895 143.64 225.707 141.921 225.86 140.215C226.013 138.51 226.504 136.852 227.305 135.338C230.329 129.683 241.608 124.754 248.034 122.29C253.085 120.369 265.695 115.894 273.738 115.894C279.65 115.894 282.538 118.071 282.538 122.577C282.538 126.054 282.538 136.654 280.391 144.788C278.244 152.923 274.071 165.865 274.026 165.956C273.978 166.12 273.875 166.261 273.734 166.358C273.594 166.454 273.424 166.499 273.255 166.485V166.485ZM233.444 139.995H233.625C233.837 139.995 238.978 141.386 248.307 148.598C257.061 155.357 269.263 163.401 272.756 164.777C273.663 161.934 277.065 151.169 278.804 144.335C280.905 136.397 280.905 125.949 280.905 122.516C280.905 119.961 280.044 117.345 273.618 117.345C268.144 117.345 258.981 119.644 248.473 123.65C237.965 127.657 230.631 132.178 228.545 136.003C227.294 138.379 226.919 141.12 227.486 143.745L232.96 140.101C233.104 140.011 233.275 139.974 233.444 139.995Z" fill="#242C53"/>
<path d="M235.561 111.993C240.521 117.463 244.002 124.109 245.676 131.301C248.428 143.261 265.725 157.322 269.868 157.322C274.011 157.322 273.723 136.82 272.347 130.847C270.972 124.875 265.453 108.772 265.453 108.772C265.453 108.772 243.438 98.1881 235.561 111.993Z" fill="white"/>
<path d="M269.928 158.078C265.483 158.078 247.792 143.624 244.995 131.467C243.337 124.418 239.925 117.901 235.076 112.522C234.96 112.405 234.885 112.253 234.863 112.089C234.841 111.925 234.874 111.758 234.955 111.615C243.029 97.3717 265.604 107.971 265.83 108.092C265.922 108.135 266.004 108.196 266.071 108.271C266.139 108.346 266.191 108.435 266.224 108.53C266.45 109.18 271.773 124.724 273.148 130.681C274.343 135.913 274.902 153.104 271.727 157.111C271.523 157.401 271.254 157.639 270.942 157.807C270.63 157.975 270.282 158.068 269.928 158.078ZM236.558 111.887C241.408 117.379 244.812 123.995 246.462 131.135C249.214 143.004 266.405 156.566 269.928 156.566C269.928 156.566 270.215 156.566 270.533 156.158C273.103 152.938 272.937 136.502 271.667 131.014C270.397 125.525 265.619 111.584 264.893 109.316C262.368 108.198 243.695 100.381 236.558 111.887Z" fill="#242C53"/>
<g style="mix-blend-mode:multiply">
<path d="M269.263 121.579C269.263 121.579 265.347 133.312 261.43 136.835C258.406 139.371 255.134 141.595 251.663 143.473C251.663 143.473 249.319 135.262 243.453 135.262C237.586 135.262 228.59 139.179 228.59 139.179C228.59 139.179 228.59 136.049 236.014 132.133L243.453 128.232L260.659 121.579H269.263Z" fill="#FAC13B"/>
</g>
<path opacity="0.5" d="M269.263 121.579C269.263 121.579 265.347 133.312 261.43 136.835C258.406 139.371 255.134 141.595 251.663 143.473C251.663 143.473 249.319 135.262 243.453 135.262C237.586 135.262 228.59 139.179 228.59 139.179C228.59 139.179 228.59 136.049 236.014 132.133L243.453 128.232L260.659 121.579H269.263Z" fill="white"/>
<path d="M235.56 111.993C240.52 117.463 244.002 124.109 245.676 131.301C248.427 143.261 265.725 157.322 269.868 157.322C274.01 157.322 273.723 136.82 272.347 130.847C270.971 124.875 265.453 108.772 265.453 108.772C265.453 108.772 243.438 98.1881 235.56 111.993Z" fill="white"/>
<path d="M269.928 158.078C265.483 158.078 247.792 143.624 244.995 131.467C243.337 124.418 239.925 117.901 235.076 112.522C234.96 112.405 234.885 112.253 234.863 112.089C234.841 111.925 234.874 111.758 234.955 111.615C243.029 97.3717 265.604 107.971 265.83 108.092C265.922 108.135 266.004 108.196 266.071 108.271C266.139 108.346 266.191 108.435 266.224 108.53C266.45 109.18 271.773 124.724 273.148 130.681C274.343 135.913 274.902 153.104 271.727 157.111C271.523 157.401 271.254 157.639 270.942 157.807C270.63 157.975 270.282 158.068 269.928 158.078ZM236.558 111.887C241.408 117.379 244.812 123.995 246.462 131.135C249.214 143.004 266.405 156.566 269.928 156.566C269.928 156.566 270.215 156.566 270.533 156.158C273.103 152.938 272.937 136.502 271.667 131.014C270.397 125.525 265.619 111.584 264.893 109.316C262.368 108.198 243.695 100.381 236.558 111.887Z" fill="#242C53"/>
<path d="M221.03 89.8268C224.274 98.6487 228.286 107.169 233.02 115.289C240.006 126.765 253.493 133.267 260.977 130.273C268.461 127.279 273.557 117.617 271.561 102.649C271.123 99.3525 268.25 98.0068 267.327 95.0886C264.016 84.5046 260.644 74.2986 259.48 70.4128C257.968 65.4081 245.993 60.4184 233.519 63.9112C221.045 67.4039 219.034 77.8367 221.03 89.8268Z" fill="white"/>
<path d="M262.474 80.664C262.474 80.664 257.938 84.0358 247.747 82.0853C237.556 80.1348 230.541 80.5733 230.934 83.2647C231.327 85.956 232.113 89.5092 232.113 89.5092C232.113 89.5092 219.881 78.9252 230.964 76.1129C238.947 74.0415 243.559 77.1864 245.509 77.6249C247.46 78.0634 262.474 80.664 262.474 80.664Z" fill="#FAC13B"/>
<path opacity="0.5" d="M262.474 80.664C262.474 80.664 257.938 84.0358 247.747 82.0853C237.556 80.1348 230.541 80.5733 230.934 83.2647C231.327 85.956 232.113 89.5092 232.113 89.5092C232.113 89.5092 219.881 78.9252 230.964 76.1129C238.947 74.0415 243.559 77.1864 245.509 77.6249C247.46 78.0634 262.474 80.664 262.474 80.664Z" fill="white"/>
<path d="M256.804 131.815C248.685 131.815 238.116 125.177 232.37 115.727C227.596 107.56 223.548 98.9897 220.274 90.1141C220.266 90.0742 220.266 90.033 220.274 89.9931C217.779 75.0999 222.043 66.3152 233.293 63.1703C246.341 59.5112 258.603 64.8939 260.191 70.1708C260.735 72.0003 261.703 75.2058 263.049 79.2428C264.561 83.7788 266.269 89.2674 268.023 94.892C268.462 96.011 269.108 97.037 269.928 97.916C271.151 99.1996 271.971 100.813 272.287 102.558C274.525 119.356 268.053 128.262 261.249 130.983C259.834 131.542 258.325 131.824 256.804 131.815V131.815ZM221.771 89.6303C224.993 98.3807 228.969 106.834 233.655 114.896C240.686 126.432 253.977 132.254 260.705 129.562C266.98 127.052 272.937 118.691 270.805 102.739C270.528 101.282 269.841 99.9341 268.825 98.8535C267.869 97.8059 267.134 96.577 266.662 95.2398C264.908 89.6303 263.139 84.1266 261.688 79.6057C260.403 75.614 259.375 72.3935 258.815 70.5337C257.545 66.3303 246.371 61.0232 233.776 64.4857C223.374 67.4795 219.458 75.6745 221.771 89.6303Z" fill="#242C53"/>
<path d="M230.027 106.293C230.027 106.293 222.028 102.8 221.529 106.293C221.03 109.785 224.553 112.341 228.016 113.853C228.879 114.325 229.863 114.53 230.843 114.441C231.823 114.352 232.755 113.973 233.519 113.354" fill="white"/>
<path d="M230.54 115.183C229.57 115.171 228.613 114.96 227.728 114.563C222.784 112.446 220.319 109.498 220.788 106.262C220.828 105.892 220.958 105.538 221.166 105.23C221.374 104.921 221.654 104.668 221.982 104.493C224.387 103.148 229.724 105.416 230.329 105.688C230.499 105.777 230.629 105.929 230.691 106.111C230.754 106.293 230.745 106.492 230.665 106.667C230.586 106.843 230.443 106.981 230.266 107.055C230.088 107.129 229.889 107.132 229.709 107.064C227.713 106.187 224.039 105.083 222.708 105.809C222.587 105.875 222.485 105.97 222.411 106.087C222.337 106.203 222.293 106.336 222.285 106.474C221.801 109.846 225.853 112.114 228.333 113.172C229.061 113.577 229.891 113.759 230.721 113.697C231.551 113.636 232.345 113.332 233.005 112.824C233.15 112.701 233.337 112.638 233.527 112.647C233.717 112.655 233.897 112.736 234.031 112.871C234.165 113.007 234.242 113.188 234.248 113.378C234.254 113.569 234.188 113.754 234.063 113.898C233.094 114.756 231.835 115.215 230.54 115.183Z" fill="#242C53"/>
<path d="M262.671 86.5459C262.671 86.5459 253.765 84.429 257.575 96.2982C258.331 98.6418 263.517 101.379 263.517 101.379C263.517 101.379 263.094 105.189 260.977 105.612" fill="white"/>
<path d="M260.962 106.368C260.788 106.365 260.621 106.304 260.486 106.194C260.352 106.085 260.259 105.933 260.221 105.763C260.201 105.665 260.201 105.564 260.221 105.465C260.241 105.367 260.28 105.274 260.337 105.191C260.393 105.108 260.465 105.037 260.549 104.982C260.633 104.927 260.727 104.889 260.826 104.871C261.915 104.644 262.474 102.845 262.686 101.847C261.295 101.061 257.575 98.8233 256.864 96.5855C255.443 92.1705 255.564 89.0255 257.212 87.2414C259.238 85.049 262.686 85.8503 262.837 85.8806C263.031 85.9272 263.199 86.0488 263.304 86.2188C263.408 86.3888 263.442 86.5933 263.396 86.7878C263.375 86.8849 263.334 86.9768 263.277 87.0579C263.219 87.1391 263.146 87.2078 263.061 87.26C262.977 87.3122 262.882 87.3468 262.784 87.3618C262.686 87.3768 262.585 87.3718 262.489 87.3472C262.489 87.3472 259.737 86.7273 258.316 88.2695C256.895 89.8118 257.076 92.3217 258.316 96.1168C258.8 97.6288 261.99 99.7607 263.88 100.759C264.011 100.834 264.118 100.945 264.188 101.079C264.258 101.213 264.287 101.364 264.273 101.515C264.273 101.968 263.714 105.899 261.128 106.414L260.962 106.368Z" fill="#242C53"/>
<path d="M256.305 114.079C256.305 114.079 249.955 115.349 247.415 112.386Z" fill="white"/>
<path d="M253.266 115.183C252.098 115.276 250.924 115.125 249.818 114.739C248.711 114.354 247.697 113.743 246.84 112.945C246.775 112.87 246.726 112.782 246.695 112.688C246.665 112.594 246.653 112.494 246.661 112.395C246.668 112.296 246.695 112.2 246.74 112.111C246.786 112.023 246.848 111.944 246.923 111.879C246.998 111.815 247.086 111.766 247.18 111.735C247.275 111.704 247.374 111.692 247.473 111.7C247.572 111.708 247.669 111.735 247.757 111.78C247.846 111.825 247.924 111.887 247.989 111.963C250.212 114.563 256.108 113.475 256.169 113.475C256.265 113.453 256.365 113.451 256.463 113.469C256.56 113.487 256.653 113.525 256.735 113.58C256.817 113.635 256.887 113.707 256.94 113.79C256.994 113.873 257.03 113.967 257.046 114.064C257.066 114.161 257.066 114.262 257.047 114.359C257.028 114.457 256.991 114.55 256.936 114.632C256.881 114.715 256.81 114.786 256.728 114.842C256.646 114.898 256.553 114.936 256.456 114.956C255.401 115.124 254.334 115.199 253.266 115.183V115.183Z" fill="#242C53"/>
<path d="M246.991 94.1813C246.991 94.1813 242.334 92.4879 239.794 94.6047C238.434 95.551 237.383 96.876 236.77 98.4149" fill="white"/>
<path d="M236.83 99.1559H236.649C236.553 99.1312 236.462 99.0878 236.382 99.028C236.303 98.9683 236.236 98.8934 236.185 98.8077C236.135 98.722 236.102 98.6272 236.088 98.5287C236.074 98.4302 236.08 98.3299 236.105 98.2336C236.737 96.548 237.852 95.086 239.31 94.0302C242.153 91.6715 247.051 93.4103 247.248 93.4859C247.343 93.5179 247.43 93.5687 247.504 93.6353C247.578 93.7018 247.639 93.7827 247.681 93.8731C247.723 93.9635 247.747 94.0615 247.751 94.1612C247.754 94.261 247.737 94.3604 247.702 94.4536C247.633 94.642 247.493 94.7956 247.312 94.8807C247.13 94.9657 246.922 94.9752 246.734 94.9072C246.734 94.9072 242.455 93.3952 240.278 95.1944C239.079 96.0638 238.143 97.2459 237.571 98.6116C237.523 98.7698 237.424 98.9082 237.291 99.0062C237.157 99.1042 236.996 99.1567 236.83 99.1559V99.1559Z" fill="#242C53"/>
<path d="M246.87 101.424C247.475 102.83 247.354 104.221 246.598 104.539C245.842 104.856 244.753 103.994 244.148 102.588C243.544 101.182 243.68 99.8061 244.436 99.4734C245.192 99.1408 246.28 100.063 246.87 101.424Z" fill="#242C53"/>
<path d="M262.096 94.0151C262.701 95.4061 262.565 96.7972 261.824 97.1298C261.083 97.4625 259.964 96.5704 259.374 95.1793C258.785 93.7883 258.89 92.3822 259.646 92.0646C260.402 91.7471 261.491 92.6241 262.096 94.0151Z" fill="#242C53"/>
<path d="M227.804 108.304C227.804 108.304 232.854 104.629 231.932 101.409C231.009 98.1882 229.18 98.1882 231.024 96.3587C232.869 94.5292 234.23 93.5917 233.776 90.8399C233.323 88.0881 225.959 83.4765 228.257 80.7246C230.556 77.9728 229.633 74.6766 248.488 79.3336C267.343 83.9906 279.303 76.5818 273.784 69.687C268.265 62.7923 263.668 61.87 263.668 61.87C263.668 61.87 274.252 57.334 265.513 52.6619C256.774 47.9898 236.997 48.1259 225.959 56.8048C214.922 65.4837 217.22 72.8471 217.22 72.8471C217.22 72.8471 211.247 73.7694 210.779 82.9775C210.31 92.1856 227.804 108.304 227.804 108.304Z" fill="#242C53"/>
<path d="M257.893 77.504C253.873 77.3352 249.916 76.4547 246.205 74.9034C243.296 73.663 240.198 72.9267 237.042 72.7261C229.739 72.7261 228.227 76.8689 228.167 77.0504C228.146 77.1149 228.113 77.1747 228.069 77.226C228.025 77.2773 227.971 77.319 227.91 77.3487C227.849 77.3784 227.783 77.3954 227.715 77.3987C227.647 77.402 227.58 77.3916 227.516 77.3679C227.452 77.3473 227.392 77.3141 227.34 77.2702C227.288 77.2263 227.246 77.1726 227.215 77.1122C227.184 77.0517 227.165 76.9857 227.16 76.918C227.154 76.8503 227.163 76.7823 227.184 76.7177C227.259 76.5212 228.953 71.6828 237.042 71.6828C240.319 71.8766 243.537 72.6389 246.553 73.9357C251.255 75.614 256.139 77.3528 262.277 75.992C265.604 75.2511 267.554 74.0566 268.038 72.469C268.673 70.4278 266.707 68.2959 266.692 68.2657C266.596 68.1693 266.542 68.0388 266.542 67.9028C266.542 67.7668 266.596 67.6363 266.692 67.5399C266.793 67.4464 266.925 67.3944 267.063 67.3944C267.2 67.3944 267.333 67.4464 267.433 67.5399C267.524 67.6457 269.822 70.1406 269.021 72.7563C268.401 74.737 266.209 76.1583 262.489 76.9899C260.979 77.3238 259.439 77.4961 257.893 77.504V77.504Z" fill="white"/>
<path d="M224.16 76.234C224.022 76.2224 223.895 76.1574 223.804 76.0529C223.714 75.9483 223.668 75.8126 223.676 75.6746C223.676 75.5687 224.568 65.5895 233.414 63.3518C238.63 62.0363 244.663 63.0191 249.516 63.8054C252.54 64.3043 255.247 64.7428 256.381 64.3043C256.505 64.2777 256.635 64.2968 256.747 64.3581C256.858 64.4195 256.944 64.5191 256.988 64.6385C257.032 64.7579 257.032 64.8893 256.987 65.0084C256.942 65.1275 256.856 65.2265 256.744 65.2871C255.353 65.8012 252.707 65.3779 249.35 64.8335C244.587 64.0473 238.66 63.0947 233.671 64.3497C225.536 66.4211 224.72 75.6595 224.704 75.7502C224.701 75.8177 224.683 75.8839 224.654 75.9448C224.624 76.0057 224.583 76.0602 224.533 76.1051C224.482 76.1501 224.423 76.1846 224.359 76.2067C224.295 76.2288 224.228 76.2381 224.16 76.234V76.234Z" fill="white"/>
<path d="M218.308 91.8377C218.206 91.836 218.106 91.8045 218.021 91.747C216.664 90.6086 215.611 89.1498 214.959 87.5025C214.307 85.8551 214.076 84.0713 214.287 82.3121C214.71 75.6593 219.82 75.5837 219.881 75.5837C220.004 75.6048 220.116 75.6687 220.196 75.7641C220.277 75.8596 220.321 75.9805 220.321 76.1054C220.321 76.2303 220.277 76.3512 220.196 76.4466C220.116 76.5421 220.004 76.606 219.881 76.627C219.699 76.627 215.678 76.7177 215.345 82.3726C215.14 83.9547 215.333 85.5629 215.906 87.0518C216.479 88.5407 217.414 89.8634 218.626 90.9003C218.682 90.9381 218.729 90.9867 218.766 91.0434C218.802 91.1 218.827 91.1634 218.838 91.2298C218.85 91.2962 218.847 91.3642 218.832 91.4297C218.816 91.4952 218.787 91.5569 218.747 91.611C218.701 91.6846 218.636 91.7446 218.559 91.7845C218.482 91.8244 218.395 91.8428 218.308 91.8377Z" fill="white"/>
<path d="M221.438 87.5437C221.339 87.5438 221.242 87.5153 221.159 87.4616C221.076 87.408 221.01 87.3315 220.969 87.2413C220.596 86.5515 220.375 85.79 220.32 85.0076C220.266 84.2253 220.379 83.4404 220.652 82.7053C221.319 81.2641 222.508 80.1295 223.978 79.5301C224.041 79.5034 224.108 79.4897 224.176 79.4897C224.243 79.4898 224.311 79.5038 224.373 79.5306C224.435 79.5575 224.491 79.5968 224.538 79.6461C224.584 79.6954 224.62 79.7537 224.644 79.8174C224.693 79.9438 224.691 80.0846 224.637 80.2093C224.583 80.3339 224.482 80.4322 224.356 80.4827C223.153 80.9926 222.175 81.9221 221.604 83.0985C221.39 83.7023 221.307 84.3446 221.359 84.9831C221.411 85.6216 221.598 86.2418 221.907 86.8028C221.964 86.9293 221.969 87.0731 221.921 87.2032C221.872 87.3332 221.775 87.4392 221.65 87.4984C221.583 87.5279 221.511 87.5434 221.438 87.5437Z" fill="white"/>
<path d="M222.602 95.7387C222.519 95.737 222.437 95.7155 222.364 95.6761C222.29 95.6367 222.227 95.5804 222.179 95.5119L220.229 92.7903C220.148 92.678 220.116 92.5385 220.139 92.4024C220.161 92.2663 220.237 92.1448 220.35 92.0646C220.462 91.9844 220.601 91.952 220.737 91.9747C220.874 91.9974 220.995 92.0732 221.075 92.1855L223.026 94.9223C223.103 95.0329 223.133 95.1694 223.111 95.3023C223.088 95.4352 223.014 95.554 222.905 95.6329C222.82 95.7026 222.713 95.7401 222.602 95.7387V95.7387Z" fill="white"/>
</svg>
