<svg width="100" height="100" viewBox="0 0 100 100" fill="none" xmlns="http://www.w3.org/2000/svg">
<rect width="100" height="100" rx="25" fill="white"/>
<path d="M31.0662 76.0019L26.855 28.75H73.145L68.9281 75.9944L49.9719 81.25L31.0662 76.0019Z" fill="#1572B6"/>
<path d="M50 77.2338L65.3188 72.9869L68.9225 32.6144H50V77.2338Z" fill="#33A9DC"/>
<path d="M50 49.7332H57.6688L58.1975 43.7988H50V38.0032H64.5312L64.3925 39.5575L62.9694 55.5288H50V49.7332Z" fill="white"/>
<path d="M50.0356 64.7838L50.0093 64.7913L43.5556 63.0475L43.1431 58.4257H37.325L38.1368 67.525L50.0075 70.8213L50.0356 70.8138V64.7838Z" fill="#EBEBEB"/>
<path d="M57.1756 55.2831L56.4781 63.0437L50.015 64.7875V70.8175L61.895 67.525L61.9831 66.5462L62.99 55.2831H57.1756Z" fill="white"/>
<path d="M50.0206 38.0032V43.7988H36.0218L35.9056 42.4957L35.6412 39.5575L35.5024 38.0032H50.0206Z" fill="#EBEBEB"/>
<path d="M50 49.7332V55.5288H43.6269L43.5106 54.2257L43.2481 51.2875L43.1094 49.7332H50Z" fill="#EBEBEB"/>
</svg>
