<svg width="50" height="50" viewBox="0 0 50 50" fill="none" xmlns="http://www.w3.org/2000/svg">
<circle cx="25" cy="25" r="24" fill="#242C53" stroke="#F55C4A" stroke-width="2"/>
<path d="M36.9416 15C36.828 14.9883 36.7135 14.9883 36.5999 15H13.2666C13.1171 15.0023 12.9685 15.0247 12.825 15.0667L24.8666 27.0583L36.9416 15Z" fill="#F55C4A"/>
<path d="M38.1749 16.1582L26.0416 28.2415C25.7293 28.552 25.3069 28.7262 24.8666 28.7262C24.4263 28.7262 24.0039 28.552 23.6916 28.2415L11.6666 16.2499C11.6296 16.3857 11.61 16.5257 11.6083 16.6665V33.3332C11.6083 33.7752 11.7839 34.1992 12.0964 34.5117C12.409 34.8243 12.8329 34.9999 13.2749 34.9999H36.6083C37.0503 34.9999 37.4742 34.8243 37.7868 34.5117C38.0993 34.1992 38.2749 33.7752 38.2749 33.3332V16.6665C38.2683 16.4929 38.2346 16.3214 38.1749 16.1582ZM14.4166 33.3332H13.2583V32.1415L19.3166 26.1332L20.4916 27.3082L14.4166 33.3332ZM36.5916 33.3332H35.4249L29.3499 27.3082L30.5249 26.1332L36.5833 32.1415L36.5916 33.3332Z" fill="#F55C4A"/>
</svg>
