<svg width="100" height="100" viewBox="0 0 100 100" fill="none" xmlns="http://www.w3.org/2000/svg">
<rect width="100" height="100" rx="25" fill="white"/>
<path d="M59.3333 61.3333C63.9357 61.3333 67.6667 57.6023 67.6667 53C67.6667 48.3976 63.9357 44.6666 59.3333 44.6666C54.731 44.6666 51 48.3976 51 53C51 57.6023 54.731 61.3333 59.3333 61.3333Z" fill="#19BCFE"/>
<path fill-rule="evenodd" clip-rule="evenodd" d="M42.6667 78C44.8768 78 46.9965 77.1221 48.5593 75.5593C50.1221 73.9965 51 71.8768 51 69.6667V61.3334H42.6667C40.4566 61.3334 38.337 62.2113 36.7742 63.7742C35.2113 65.337 34.3334 67.4566 34.3334 69.6667C34.3334 71.8768 35.2113 73.9965 36.7742 75.5593C38.337 77.1221 40.4566 78 42.6667 78Z" fill="#09CF83"/>
<path fill-rule="evenodd" clip-rule="evenodd" d="M42.6667 61.3333H51V44.6666H42.6667C40.4566 44.6666 38.337 45.5446 36.7742 47.1074C35.2113 48.6702 34.3334 50.7898 34.3334 53C34.3334 55.2101 35.2113 57.3297 36.7742 58.8925C38.337 60.4553 40.4566 61.3333 42.6667 61.3333Z" fill="#A259FF"/>
<path fill-rule="evenodd" clip-rule="evenodd" d="M42.6667 44.6667H51V28H42.6667C40.4566 28 38.337 28.878 36.7742 30.4408C35.2113 32.0036 34.3334 34.1232 34.3334 36.3333C34.3334 38.5435 35.2113 40.6631 36.7742 42.2259C38.337 43.7887 40.4566 44.6667 42.6667 44.6667Z" fill="#F24E1E"/>
<path fill-rule="evenodd" clip-rule="evenodd" d="M59.3333 44.6667H51V28H59.3333C61.5435 28 63.6631 28.878 65.2259 30.4408C66.7887 32.0036 67.6667 34.1232 67.6667 36.3333C67.6667 38.5435 66.7887 40.6631 65.2259 42.2259C63.6631 43.7887 61.5435 44.6667 59.3333 44.6667Z" fill="#FF7262"/>
</svg>
