<svg width="100" height="100" viewBox="0 0 100 100" fill="none" xmlns="http://www.w3.org/2000/svg">
<rect width="100" height="100" rx="25" fill="white"/>
<path d="M28.9884 75.252L24.4242 24.0625H74.5758L70.0054 75.2439L49.4695 80.9375L28.9884 75.252Z" fill="#E44F26"/>
<path d="M49.5 76.5866L66.0953 71.9858L69.9994 28.2489H49.5V76.5866Z" fill="#F1662A"/>
<path d="M49.5 47.233H41.1922L40.6194 40.8041H49.5V34.5255H33.7578L33.9081 36.2115L35.4498 53.5116H49.5V47.233Z" fill="#EBEBEB"/>
<path d="M49.5001 63.5378L49.4716 63.5459L42.4801 61.6589L42.0332 56.6519H35.7302L36.6098 66.5075L49.4716 70.0784L49.5001 70.0703V63.5378Z" fill="#EBEBEB"/>
<path d="M49.4777 47.233V53.5116H57.2086L56.4814 61.6549L49.4777 63.544V70.0765L62.3497 66.5076L62.4431 65.4473L63.9178 48.919L64.0722 47.233H49.4777Z" fill="white"/>
<path d="M49.4777 34.5255V40.8041H64.643L64.7689 39.3944L65.0553 36.2115L65.2056 34.5255H49.4777Z" fill="white"/>
</svg>
