<svg width="100" height="100" viewBox="0 0 100 100" fill="none" xmlns="http://www.w3.org/2000/svg">
<rect width="100" height="100" rx="25" fill="white"/>
<g clip-path="url(#clip0)">
<path d="M44.1238 68.2408C44.1238 68.2408 41.5461 69.7399 45.9584 70.2471C51.3039 70.8569 54.0357 70.7696 59.9265 69.6545C59.9265 69.6545 61.4754 70.6256 63.6381 71.4668C50.4328 77.1264 33.7515 71.1389 44.1238 68.2408Z" fill="#5382A1"/>
<path d="M42.5101 60.8552C42.5101 60.8552 39.6189 62.9955 44.0345 63.4521C49.7447 64.0411 54.2541 64.0894 62.0572 62.5869C62.0572 62.5869 63.1365 63.681 64.8336 64.2794C48.8674 68.9482 31.084 64.6476 42.5101 60.8552Z" fill="#5382A1"/>
<path d="M56.1137 48.3271C59.3677 52.0732 55.2589 55.4443 55.2589 55.4443C55.2589 55.4443 63.5208 51.1792 59.7264 45.8382C56.1827 40.8578 53.4649 38.3828 68.1772 29.8503C68.1772 29.8503 45.0839 35.6179 56.1137 48.3269" fill="#E76F00"/>
<path d="M73.5789 73.7035C73.5789 73.7035 75.4865 75.2752 71.4779 76.4912C63.8557 78.8004 39.7529 79.4976 33.0572 76.5832C30.6504 75.5363 35.1641 74.0832 36.5838 73.7781C38.0645 73.457 38.9108 73.517 38.9108 73.517C36.234 71.6312 21.6094 77.2195 31.4822 78.8197C58.4067 83.1861 80.5627 76.8537 73.5789 73.7035Z" fill="#5382A1"/>
<path d="M45.3633 53.2031C45.3633 53.2031 33.1034 56.1152 41.0219 57.1725C44.3653 57.6201 51.0303 57.519 57.2387 56.9986C62.3125 56.5709 67.4073 55.6607 67.4073 55.6607C67.4073 55.6607 65.6182 56.427 64.3239 57.3107C51.8739 60.5852 27.8227 59.0619 34.7467 55.7125C40.6024 52.882 45.3635 53.2031 45.3635 53.2031" fill="#5382A1"/>
<path d="M67.3567 65.4966C80.013 58.92 74.1612 52.6001 70.0768 53.4517C69.0757 53.6599 68.6294 53.8403 68.6294 53.8403C68.6294 53.8403 69.0011 53.2583 69.7108 53.0063C77.7909 50.1655 84.0051 61.3847 67.1024 65.828C67.1024 65.8282 67.2983 65.6532 67.3567 65.4966Z" fill="#5382A1"/>
<path d="M59.7264 16.0725C59.7264 16.0725 66.7356 23.0842 53.0785 33.8656C42.1272 42.5145 50.5813 47.4457 53.0741 53.0799C46.6815 47.3123 41.9901 42.235 45.1375 37.5096C49.7569 30.5727 62.5543 27.2096 59.7264 16.0723" fill="#E76F00"/>
<path d="M46.6071 83.3174C58.7553 84.0951 77.4102 82.8859 77.852 77.1377C77.852 77.1377 77.0028 79.317 67.8122 81.0475C57.4434 82.9986 44.6552 82.7709 37.0702 81.5203C37.0704 81.5203 38.6229 82.8055 46.6073 83.3174" fill="#5382A1"/>
</g>
<defs>
<clipPath id="clip0">
<rect width="50" height="67.5781" fill="white" transform="translate(28 16)"/>
</clipPath>
</defs>
</svg>
