<svg width="100" height="100" viewBox="0 0 100 100" fill="none" xmlns="http://www.w3.org/2000/svg">
<rect width="100" height="100" rx="25" fill="white"/>
<path d="M71.6284 55.9017C69.541 55.9125 67.7267 56.4152 66.2077 57.1585C65.6502 56.0545 65.0928 55.0711 64.9946 54.3497C64.8852 53.5083 64.7541 52.9945 64.8852 51.9891C65.0164 50.9836 65.6066 49.5518 65.5955 49.4426C65.5848 49.3334 65.4643 48.8196 64.2622 48.8088C63.0601 48.7978 62.0218 49.0383 61.9016 49.3552C61.7813 49.672 61.5519 50.3935 61.3988 51.1364C61.1912 52.2295 58.9946 56.131 57.7379 58.1747C57.3334 57.3771 56.9837 56.6775 56.907 56.1202C56.7978 55.2788 56.6666 54.765 56.7978 53.7595C56.9291 52.7541 57.5192 51.3225 57.5082 51.2131C57.4972 51.1038 57.377 50.5901 56.1748 50.5793C54.9725 50.5683 53.9342 50.8088 53.8142 51.1256C53.694 51.4428 53.5627 52.1857 53.3115 52.9071C53.06 53.6285 50.142 60.1423 49.377 61.8251C49.0679 62.5062 48.7436 63.1804 48.4044 63.847C48.4044 63.847 48.3934 63.8799 48.3605 63.9345C48.254 64.1435 48.1448 64.3512 48.0329 64.5574V64.5682C47.8688 64.8635 47.694 65.1366 47.6066 65.1366C47.5409 65.1366 47.4207 64.3498 47.6284 63.2787C48.0655 61.0165 49.1038 57.4974 49.093 57.3771C49.093 57.3115 49.2896 56.6995 48.4154 56.3824C47.5627 56.0656 47.2569 56.5901 47.1802 56.5901C47.1038 56.5901 47.049 56.776 47.049 56.776C47.049 56.776 48.0001 52.8197 45.2349 52.8197C43.5083 52.8197 41.1256 54.7104 39.9453 56.4153C38.6035 57.1454 37.2629 57.8777 35.9234 58.612C35.2789 58.9727 34.6121 59.3335 33.9891 59.6721C33.9453 59.6285 33.9017 59.5737 33.8579 59.5301C30.5136 55.9563 24.328 53.4317 24.5902 48.634C24.6887 46.8853 25.2896 42.2951 36.47 36.7214C45.672 32.1858 52.9946 33.4425 54.2623 36.2295C56.0764 40.2078 50.3389 47.5957 40.8305 48.6666C37.2022 49.0711 35.3005 47.6721 34.8198 47.1476C34.317 46.601 34.2404 46.5682 34.0545 46.6777C33.7487 46.8417 33.9453 47.3335 34.0545 47.6175C34.3388 48.3605 35.5081 49.672 37.4863 50.317C39.2349 50.8852 43.4862 51.2023 48.6338 49.2131C54.3934 46.9835 58.8962 40.7869 57.5738 35.5957C56.2513 30.3279 47.5081 28.5903 39.2349 31.53C34.317 33.2789 28.9836 36.0328 25.1476 39.6176C20.5902 43.8797 19.8688 47.5847 20.1638 49.1367C21.2241 54.6448 28.8198 58.2295 31.858 60.8852C31.7049 60.9727 31.5627 61.0493 31.4427 61.1149C29.9234 61.8689 24.1311 64.8961 22.6885 68.0984C21.0493 71.7267 22.951 74.3281 24.2077 74.6775C28.1094 75.7596 32.1202 73.8143 34.2732 70.601C36.4262 67.388 36.1639 63.2131 35.1695 61.3006C35.1584 61.2788 35.1477 61.2567 35.1256 61.2349C35.5191 61.0055 35.9234 60.765 36.317 60.5356C37.0402 60.108 37.7726 59.6962 38.5138 59.3004C38.142 60.3169 37.8687 61.53 37.7377 63.2787C37.5737 65.3335 38.4151 67.9999 39.519 69.049C40.0109 69.5084 40.5901 69.5192 40.9618 69.5192C42.2513 69.5192 42.8307 68.4481 43.4755 67.1803C44.2623 65.6285 44.9727 63.8252 44.9727 63.8252C44.9727 63.8252 44.0874 68.6995 46.4919 68.6995C47.3661 68.6995 48.2513 67.5628 48.6448 66.9837V66.9945C48.6448 66.9945 48.6666 66.9617 48.7105 66.8852C48.7979 66.7432 48.8525 66.6556 48.8525 66.6556V66.634C49.2022 66.0218 49.9892 64.6338 51.1585 62.3278C52.6667 59.3552 54.1203 55.6395 54.1203 55.6395C54.1203 55.6395 54.2516 56.5465 54.6995 58.0547C54.962 58.9399 55.508 59.9126 55.9454 60.8524C55.5957 61.3444 55.377 61.6174 55.377 61.6174L55.388 61.6285C55.1037 61.9999 54.7979 62.4042 54.459 62.798C53.2677 64.2185 51.8471 65.8472 51.6502 66.3169C51.4205 66.8742 51.4754 67.2788 51.9127 67.6067C52.2296 67.8471 52.7977 67.8797 53.3771 67.8471C54.4482 67.7705 55.2022 67.5082 55.5737 67.3444C56.153 67.1367 56.8306 66.8196 57.4644 66.3497C58.6339 65.4863 59.3441 64.2513 59.2787 62.6231C59.2459 61.7269 58.9508 60.8306 58.5901 59.989C58.6995 59.8362 58.7977 59.6831 58.9072 59.5301C60.7541 56.8306 62.1859 53.8688 62.1859 53.8688C62.1859 53.8688 62.3171 54.7758 62.765 56.2842C62.9837 57.0492 63.4318 57.8799 63.8251 58.6885C62.0874 60.0985 61.0163 61.7377 60.6338 62.8088C59.9455 64.7979 60.4808 65.6939 61.4973 65.9016C61.9562 66 62.612 65.7813 63.0929 65.5737C63.7048 65.377 64.4263 65.0384 65.1148 64.5354C66.2844 63.6722 67.4098 62.4699 67.3442 60.8417C67.3114 60.0985 67.1148 59.366 66.8415 58.6556C68.3169 58.0439 70.2186 57.705 72.6446 57.9891C77.847 58.601 78.8743 61.8469 78.6774 63.2133C78.4808 64.5792 77.3879 65.3224 77.0274 65.5519C76.6665 65.7816 76.5465 65.858 76.5793 66.0218C76.6229 66.2623 76.7977 66.2515 77.1038 66.2077C77.5302 66.1313 79.8362 65.1038 79.9344 62.5901C80.0984 59.377 77.0382 55.8689 71.6284 55.9017ZM31.4973 69.4317C29.7704 71.3114 27.3662 72.0218 26.3279 71.4209C25.2132 70.7759 25.6503 67.9999 27.7705 66.011C29.06 64.7979 30.7213 63.672 31.8252 62.9836C32.0764 62.8306 32.4481 62.6121 32.8962 62.3388C32.9727 62.295 33.0165 62.2732 33.0165 62.2732L33.2788 62.1092C34.0545 64.9507 33.3116 67.4536 31.4973 69.4317ZM44.0656 60.8852C43.4645 62.3499 42.2077 66.0984 41.4427 65.8908C40.787 65.716 40.3824 62.8744 41.3115 60.0656C41.7814 58.6556 42.7759 56.9726 43.3552 56.317C44.2951 55.2677 45.3334 54.9178 45.5846 55.3444C45.9017 55.9017 44.4371 59.9672 44.0656 60.8852ZM54.4372 65.847C54.1857 65.9782 53.9455 66.0656 53.836 66C53.7596 65.9562 53.9455 65.7813 53.9455 65.7813C53.9455 65.7813 55.246 64.3826 55.7595 63.7486C56.0548 63.3771 56.4043 62.94 56.776 62.4481V62.5901C56.776 64.2624 55.1584 65.3881 54.437 65.847H54.4372ZM62.4371 64.0219C62.2513 63.8906 62.2841 63.4535 62.907 62.0874C63.1475 61.5518 63.7156 60.6558 64.6885 59.7924C64.7977 60.142 64.8744 60.481 64.8634 60.7978C64.8523 62.9072 63.3444 63.694 62.4371 64.0219Z" fill="#CD6799"/>
</svg>
