<svg width="50" height="50" viewBox="0 0 50 50" fill="none" xmlns="http://www.w3.org/2000/svg">
<circle cx="25" cy="25" r="24" fill="#242C53" stroke="#F55C4A" stroke-width="2"/>
<g clip-path="url(#clip0)">
<path fill-rule="evenodd" clip-rule="evenodd" d="M15.9456 12.7979C16.219 12.5249 16.5472 12.3131 16.9087 12.1766C17.2701 12.0401 17.6564 11.982 18.042 12.006C18.4276 12.0301 18.8037 12.1359 19.1453 12.3163C19.487 12.4967 19.7864 12.7477 20.0237 13.0526L22.8284 16.6557C23.3424 17.3166 23.5237 18.1776 23.3206 18.9901L22.4659 22.4119C22.4217 22.5892 22.4241 22.7748 22.4728 22.9509C22.5215 23.1269 22.615 23.2873 22.744 23.4166L26.5831 27.2557C26.7125 27.385 26.8732 27.4786 27.0495 27.5273C27.2259 27.576 27.4118 27.5783 27.5893 27.5338L31.0096 26.6791C31.4106 26.5789 31.8291 26.5711 32.2335 26.6564C32.6379 26.7416 33.0176 26.9177 33.344 27.1713L36.9471 29.9744C38.2424 30.9823 38.3612 32.8963 37.2018 34.0541L35.5862 35.6698C34.4299 36.826 32.7018 37.3338 31.0909 36.7666C26.9677 35.3159 23.2241 32.9554 20.1377 29.8604C17.0429 26.7745 14.6824 23.0314 13.2315 18.9088C12.6659 17.2994 13.1737 15.5697 14.3299 14.4135L15.9456 12.7979Z" fill="#F55C4A"/>
</g>
<defs>
<clipPath id="clip0">
<rect width="25" height="25" fill="white" transform="translate(13 12)"/>
</clipPath>
</defs>
</svg>
